<?xml version="1.0" standalone="no"?>
<!DOCTYPE svg PUBLIC "-//W3C//DTD SVG 1.1//EN" "http://www.w3.org/Graphics/SVG/1.1/DTD/svg11.dtd" >
<svg xmlns="http://www.w3.org/2000/svg" xmlns:xlink="http://www.w3.org/1999/xlink" version="1.1">
<metadata>
Created by FontForge 20170731 at Fri Jun  5 03:18:03 2015
 By Aleksey,,,
Copyright 1990-2003 Bitstream Inc. All rights reserved.
</metadata>
<defs>
<font id="Charter-Black" horiz-adv-x="1024" >
  <font-face 
    font-family="Charter Black"
    font-weight="900"
    font-stretch="normal"
    units-per-em="2048"
    panose-1="2 4 8 3 5 5 6 2 2 3"
    ascent="1638"
    descent="-410"
    x-height="1006"
    cap-height="1374"
    bbox="-350 -483 2830 1972"
    underline-thickness="246"
    underline-position="-840"
    unicode-range="U+0020-F002"
  />
<missing-glyph horiz-adv-x="1229" 
d="M102 -362v1806h1024v-1806h-1024zM217 -248h795v1577h-795v-1577z" />
    <glyph glyph-name=".notdef" horiz-adv-x="1229" 
d="M102 -362v1806h1024v-1806h-1024zM217 -248h795v1577h-795v-1577z" />
    <glyph glyph-name=".null" horiz-adv-x="0" 
 />
    <glyph glyph-name="nonmarkingreturn" horiz-adv-x="682" 
 />
    <glyph glyph-name="space" unicode=" " horiz-adv-x="659" 
 />
    <glyph glyph-name="exclam" unicode="!" horiz-adv-x="702" 
d="M344 377q81 0 139 -57.5t58 -139.5q0 -79 -58 -135.5t-139 -56.5q-79 0 -135.5 56t-56.5 136q0 83 56 140t136 57zM539 1141l-133 -682h-117l-133 673q-2 9 -4 22q-11 60 -11 77q0 79 56.5 127.5t148.5 48.5t148.5 -49t56.5 -127q0 -14 -3 -37t-9 -53z" />
    <glyph glyph-name="quotedbl" unicode="&#x22;" horiz-adv-x="694" 
d="M496 856l-74 458q-1 8 -1.5 16.5t-0.5 23.5q0 51 25.5 79.5t70.5 28.5t70.5 -28t25.5 -78q0 -13 -3 -36q-1 -4 -1 -5l-73 -459h-39zM160 856l-74 459q-1 7 -1.5 15.5t-0.5 23.5q0 52 24.5 80t69.5 28q47 0 71.5 -27.5t24.5 -80.5q0 -16 -0.5 -24.5t-1.5 -15.5l-73 -458
h-39z" />
    <glyph glyph-name="numbersign" unicode="#" horiz-adv-x="1575" 
d="M602 588h240l86 252h-244zM723 1454l164 -37l-150 -422h248l154 457l164 -35l-150 -422h274v-155h-325l-86 -252h325v-156h-378l-158 -479l-166 33l147 446h-233l-166 -479l-162 33l154 446h-277v156h330l80 252h-307v155h362z" />
    <glyph glyph-name="dollar" unicode="$" horiz-adv-x="1319" 
d="M721 518v-360q76 7 122 57.5t46 126.5q0 69 -42.5 113.5t-125.5 62.5zM602 1217q-74 -11 -115 -53.5t-41 -108.5q0 -68 38 -110t118 -64v336zM602 1518h133v-151q96 -6 192.5 -22.5t196.5 -46.5v-360h-178l-37 242q-39 15 -82 25.5t-92 14.5v-372q244 -63 357.5 -162
t113.5 -248q0 -179 -129.5 -295t-355.5 -139v-213h-137l-1 215q-116 3 -228 20.5t-218 49.5v362h178l43 -235q52 -25 108.5 -38.5t117.5 -16.5v397q-241 69 -345 167t-104 253q0 170 123 275.5t344 123.5v154z" />
    <glyph glyph-name="percent" unicode="%" horiz-adv-x="1991" 
d="M1530 725q-64 0 -96.5 -81t-32.5 -238q0 -158 32.5 -239t96.5 -81q66 0 99.5 80t33.5 240q0 156 -34 237.5t-99 81.5zM1538 834q178 0 282.5 -115.5t104.5 -312.5q0 -199 -104 -315t-283 -116q-180 0 -283.5 115.5t-103.5 315.5q0 197 104.5 312.5t282.5 115.5zM467 1290
q-64 0 -96.5 -81t-32.5 -238q0 -158 32.5 -239t96.5 -81q67 0 101 81t34 239q0 155 -34.5 237t-100.5 82zM1352 1374h166l-877 -1374h-164zM475 1399q179 0 284 -115.5t105 -312.5q0 -200 -104.5 -315t-284.5 -115q-179 0 -283 115t-104 315q0 198 104.5 313t282.5 115z" />
    <glyph glyph-name="ampersand" unicode="&#x26;" horiz-adv-x="1683" 
d="M512 643q-34 -35 -51 -77t-17 -91q0 -120 90.5 -206.5t217.5 -86.5q48 0 92.5 13.5t85.5 40.5zM842 748l311 -297q39 40 68.5 95t50.5 128l-17 33l-110 16v106h457v-106l-150 -31q-39 -101 -89.5 -185t-115.5 -153l219 -225l162 -14v-115h-514v47l-90 100
q-104 -88 -219 -130t-254 -42q-193 0 -317.5 114t-124.5 288q0 135 79.5 221.5t233.5 118.5q-106 70 -158.5 153.5t-52.5 180.5q0 160 135 256t365 96q204 0 329 -90t125 -234q0 -131 -85.5 -219t-237.5 -112zM754 821q55 67 77.5 120.5t22.5 113.5q0 98 -40.5 154.5
t-111.5 56.5q-64 0 -107.5 -40.5t-43.5 -99.5q0 -64 43.5 -131t159.5 -174z" />
    <glyph glyph-name="quotesingle" unicode="'" horiz-adv-x="358" 
d="M160 856l-74 459q-1 7 -1.5 15.5t-0.5 23.5q0 52 24.5 80t69.5 28q47 0 71.5 -27.5t24.5 -80.5q0 -16 -0.5 -24.5t-1.5 -15.5l-73 -458h-39z" />
    <glyph glyph-name="parenleft" unicode="(" horiz-adv-x="901" 
d="M825 1470v-122q-179 -12 -261.5 -193.5t-82.5 -570.5q0 -378 83.5 -559.5t260.5 -192.5v-123h-12q-307 0 -478 230t-171 645q0 427 170.5 656.5t486.5 229.5h4z" />
    <glyph glyph-name="parenright" unicode=")" horiz-adv-x="901" 
d="M66 -291v123q179 12 261.5 193.5t82.5 570.5q0 378 -84 560.5t-260 191.5v122h12q307 0 478 -230t171 -644q0 -428 -170.5 -657.5t-486.5 -229.5h-4z" />
    <glyph glyph-name="asterisk" unicode="*" 
d="M260 1241l213 -170l-12 -35l-271 -10l-84 145zM475 1012l29 -23l-74 -262l-164 -33l-18 168zM545 1012l225 -152l-18 -166l-164 33l-74 262zM760 1241l151 -70l-82 -147l-272 12l-10 37zM510 1470l115 -124l-95 -256h-38l-97 256z" />
    <glyph glyph-name="plus" unicode="+" horiz-adv-x="1706" 
d="M938 1221v-527h514v-166h-514v-528h-170v528h-514v166h514v527h170z" />
    <glyph glyph-name="comma" unicode="," horiz-adv-x="659" 
d="M63 -373v121q110 18 170 84t60 168v14h-123q-26 25 -38.5 57.5t-12.5 73.5q0 76 44.5 121t119.5 45q98 0 155.5 -64.5t57.5 -174.5q0 -175 -120 -299.5t-313 -145.5z" />
    <glyph glyph-name="hyphen" unicode="-" horiz-adv-x="682" 
d="M51 627h580v-267h-580v267z" />
    <glyph glyph-name="period" unicode="." horiz-adv-x="659" 
d="M328 377q81 0 138.5 -57.5t57.5 -139.5q0 -79 -58 -135.5t-138 -56.5t-136.5 56t-56.5 136q0 83 56 140t137 57z" />
    <glyph glyph-name="slash" unicode="/" 
d="M817 1374h184l-874 -1564h-184z" />
    <glyph glyph-name="zero" unicode="0" horiz-adv-x="1319" 
d="M657 1266q-103 0 -152.5 -141.5t-49.5 -434.5q0 -303 48.5 -441t153.5 -138q107 0 156 138t49 441q0 299 -49.5 437.5t-155.5 138.5zM655 1399q270 0 426 -190t156 -521t-156 -522t-426 -191q-266 0 -419.5 190.5t-153.5 522.5q0 331 153 521t420 190z" />
    <glyph glyph-name="one" unicode="1" horiz-adv-x="1319" 
d="M688 1389h211v-1231l23 -31l225 -10v-117h-868v119l237 12l25 35v954l-27 23l-293 -39v123z" />
    <glyph glyph-name="two" unicode="2" horiz-adv-x="1319" 
d="M428 256h563l37 184h162v-440h-1075v197q356 253 505.5 432.5t149.5 347.5q0 127 -69.5 196.5t-196.5 69.5q-16 0 -25 -0.5t-16 -1.5v-309q-50 -22 -92 -32.5t-78 -10.5q-85 0 -136 46.5t-51 123.5q0 151 143.5 246.5t375.5 95.5q242 0 382 -110.5t140 -299.5
t-174.5 -368t-544.5 -367z" />
    <glyph glyph-name="three" unicode="3" horiz-adv-x="1319" 
d="M745 725q209 -12 322 -101.5t113 -242.5q0 -176 -168 -292t-430 -116q-235 0 -372.5 76t-137.5 203q0 78 50.5 126t133.5 48q28 0 57 -5t60 -15l69 -269q39 -8 67.5 -12t49.5 -4q110 0 178 69.5t68 182.5q0 114 -78.5 179.5t-214.5 65.5q-36 0 -70 -4t-67 -12v178
q22 -3 42 -4.5t38 -1.5q140 0 219.5 61.5t79.5 168.5q0 114 -72 179.5t-199 65.5q-6 0 -18 -1t-19 -1v-286q-35 -18 -70.5 -26.5t-72.5 -8.5q-87 0 -138.5 46t-51.5 122q0 133 143.5 218t376.5 85q225 0 359 -94.5t134 -249.5q0 -127 -99 -212.5t-282 -115.5z" />
    <glyph glyph-name="four" unicode="4" horiz-adv-x="1319" 
d="M692 1053l-422 -521h422v521zM733 1386h287v-854h242v-192h-242v-391h-328v391h-641v203z" />
    <glyph glyph-name="five" unicode="5" horiz-adv-x="1319" 
d="M193 1374h909v-264h-705v-285q82 29 157 43.5t144 14.5q223 0 359.5 -114t136.5 -300q0 -226 -174 -360t-471 -134q-201 0 -326 76.5t-125 194.5q0 81 55 134.5t140 53.5q27 0 58 -6t69 -18l61 -287q3 0 10 -1q29 -3 44 -3q131 0 215 81t84 208q0 123 -97 199.5
t-256 76.5q-66 0 -138 -12.5t-150 -36.5v739z" />
    <glyph glyph-name="six" unicode="6" horiz-adv-x="1319" 
d="M453 723q-1 -4 -1 -12q-3 -77 -3 -115q0 -236 57.5 -357.5t169.5 -121.5q92 0 146.5 81.5t54.5 219.5q0 174 -66.5 248.5t-220.5 74.5q-37 0 -71 -4.5t-66 -13.5zM1049 1462v-182l-127 18q-189 -21 -303.5 -134.5t-145.5 -309.5q71 43 154.5 65.5t175.5 22.5
q186 0 313 -134t127 -335q0 -227 -156.5 -365.5t-414.5 -138.5q-277 0 -428.5 169t-151.5 478q0 192 67 350t199 281q117 110 273 162.5t368 52.5h50z" />
    <glyph glyph-name="seven" unicode="7" horiz-adv-x="1319" 
d="M170 1374h1063v-184l-678 -1184v-67h-274l680 1136h-582l-33 -192h-176v491z" />
    <glyph glyph-name="eight" unicode="8" horiz-adv-x="1319" 
d="M475 614q-34 -62 -50.5 -114t-16.5 -97q0 -121 76.5 -205.5t185.5 -84.5q88 0 148.5 53t60.5 129q0 80 -81.5 147.5t-322.5 171.5zM903 741q170 -64 242 -147.5t72 -214.5q0 -192 -154.5 -301t-427.5 -109q-251 0 -402 110t-151 290q0 118 72 193.5t213 105.5
q-117 54 -173.5 134t-56.5 189q0 191 148 301.5t405 110.5q217 0 346 -100.5t129 -268.5q0 -96 -66.5 -170.5t-195.5 -122.5zM793 797q30 49 44.5 96t14.5 96q0 122 -56 195t-149 73q-70 0 -115 -48.5t-45 -125.5q0 -83 70 -149t236 -137z" />
    <glyph glyph-name="nine" unicode="9" horiz-adv-x="1319" 
d="M281 -113l-68 176h115q199 77 320 188.5t175 270.5q-76 -40 -148.5 -60t-144.5 -20q-195 0 -321.5 126t-126.5 321q0 230 160.5 373t421.5 143q258 0 413.5 -153t155.5 -406q0 -341 -251 -594.5t-701 -364.5zM856 662q7 46 10.5 92t3.5 90q0 202 -55.5 310t-161.5 108
q-90 0 -147 -84.5t-57 -221.5q0 -159 76.5 -241t226.5 -82q20 0 46 7t58 22z" />
    <glyph glyph-name="colon" unicode=":" horiz-adv-x="793" 
d="M395 377q81 0 138 -57.5t57 -139.5q0 -79 -57 -135.5t-138 -56.5q-80 0 -137 56t-57 136q0 82 57 139.5t137 57.5zM395 1016q81 0 138 -57.5t57 -139.5q0 -79 -57 -135.5t-138 -56.5q-80 0 -137 56t-57 136q0 82 57 139.5t137 57.5z" />
    <glyph glyph-name="semicolon" unicode=";" horiz-adv-x="793" 
d="M152 -373v121q109 18 168 83.5t59 168.5v14h-121q-26 25 -38.5 57.5t-12.5 73.5q0 76 44.5 121t119.5 45q98 0 154.5 -64t56.5 -175q0 -176 -119.5 -300t-310.5 -145zM395 1016q81 0 138 -57.5t57 -139.5q0 -79 -57 -135.5t-138 -56.5q-80 0 -137 56t-57 136
q0 82 57 139.5t137 57.5z" />
    <glyph glyph-name="less" unicode="&#x3c;" horiz-adv-x="1706" 
d="M1442 991l-934 -381l934 -381v-182l-1178 483v160l1178 486v-185z" />
    <glyph glyph-name="equal" unicode="=" horiz-adv-x="1706" 
d="M1452 487v-165h-1198v165h1198zM1452 901v-168h-1198v168h1198z" />
    <glyph glyph-name="greater" unicode="&#x3e;" horiz-adv-x="1706" 
d="M1442 690v-160l-1178 -483v182l934 381l-934 381v185z" />
    <glyph glyph-name="question" unicode="?" horiz-adv-x="1063" 
d="M410 377q81 0 137.5 -57.5t56.5 -139.5q0 -79 -57 -135.5t-137 -56.5t-137.5 56t-57.5 136q0 82 57 139.5t138 57.5zM483 571v-131h-159v254q153 49 231 131t78 195t-68.5 173.5t-195.5 61.5l-107 -260q-15 -1 -28 -1.5t-25 -0.5q-83 0 -128.5 38t-45.5 106
q0 115 119 189.5t311 74.5q243 0 381.5 -101t138.5 -278q0 -165 -125 -277t-377 -174z" />
    <glyph glyph-name="at" unicode="@" horiz-adv-x="1929" 
d="M1454 999q-20 -53 -45 -167q-5 -26 -8 -39l-74 -344q-12 -54 -16 -82t-4 -48q0 -26 19.5 -46.5t45.5 -20.5q40 0 83.5 28t82.5 78q63 84 97 189.5t34 216.5q0 244 -161 392.5t-429 148.5q-147 0 -277 -50t-233 -145q-123 -116 -184 -260t-61 -320q0 -325 194 -521.5
t514 -196.5q133 0 265.5 37t261.5 110l40 -92q-159 -89 -317 -134.5t-305 -45.5q-172 0 -323 58.5t-269 172.5q-114 109 -171.5 257t-57.5 329q0 203 74.5 373.5t222.5 306.5q125 114 289.5 174.5t349.5 60.5q310 0 501 -180t191 -473q0 -114 -29 -216t-86 -190
q-74 -113 -184.5 -182t-216.5 -69q-84 0 -127 38t-49 117q-76 -74 -148.5 -110.5t-142.5 -36.5q-118 0 -190 89.5t-72 237.5q0 97 28.5 186t83.5 165q74 99 180 156t218 57q48 0 96.5 -13.5t101.5 -42.5l39 47h168zM1099 889q-14 2 -22 3t-14 1q-113 0 -191.5 -117.5
t-78.5 -290.5q0 -100 34.5 -153t100.5 -53q43 0 85.5 29.5t86.5 90.5l65 387z" />
    <glyph glyph-name="A" unicode="A" horiz-adv-x="1436" 
d="M623 1051l-162 -453h327zM569 1384h295l475 -1249l125 -16v-119h-663v119l139 10l16 27l-108 305h-436l-103 -303l21 -25l131 -14v-119h-494v119l133 8z" />
    <glyph glyph-name="B" unicode="B" horiz-adv-x="1413" 
d="M570 133q13 -1 27.5 -1.5t43.5 -0.5q158 0 230.5 62t72.5 196q0 125 -79 188.5t-232 63.5q-25 0 -38.5 -0.5t-25.5 -2.5zM569 778h37q140 0 204 58.5t64 185.5q0 112 -62.5 166.5t-190.5 54.5q-21 0 -31.5 -0.5t-19.5 -1.5zM51 1374h735q225 0 343 -79.5t118 -231.5
q0 -122 -78 -206t-229 -124q184 -6 283.5 -92.5t99.5 -239.5q0 -194 -134 -297.5t-386 -103.5h-752v119l129 8l33 39v1051l-33 30l-129 8v119z" />
    <glyph glyph-name="C" unicode="C" horiz-adv-x="1399" 
d="M1309 49q-111 -39 -228.5 -58.5t-242.5 -19.5q-118 0 -225 27t-191 78q-161 96 -250.5 257.5t-89.5 354.5q0 146 56 276.5t161 231.5q103 100 243 151.5t310 51.5q135 0 248 -20t209 -60v-371h-187l-51 252l-35 33q-23 5 -50.5 7.5t-61.5 2.5q-201 0 -322 -151.5
t-121 -407.5q0 -251 121.5 -404t317.5 -153q34 0 62.5 2t53.5 6l33 31l53 266h187v-383z" />
    <glyph glyph-name="D" unicode="D" horiz-adv-x="1597" 
d="M588 1237v-1100h84q219 0 326.5 136.5t107.5 414.5q0 277 -107.5 413t-326.5 136h-84zM766 1374q359 0 556.5 -179.5t197.5 -506.5q0 -330 -196 -509t-558 -179h-715v119l137 8l33 39v1042l-33 39l-137 8v119h715z" />
    <glyph glyph-name="E" unicode="E" horiz-adv-x="1337" 
d="M51 0v119l137 8l33 39v1051l-33 30l-137 8v119h1127v-342h-174l-33 182l-29 23h-364v-455h215l30 29l21 147h145v-503h-145l-21 147l-30 29h-215v-494h428l28 33l37 227h170v-397h-1190z" />
    <glyph glyph-name="F" unicode="F" horiz-adv-x="1233" 
d="M57 0v119l131 8l33 39v1051l-33 30l-131 8v119h1119v-368h-177l-32 202l-29 25h-352v-483h233l29 26l20 148h146v-502h-146l-20 147l-29 29h-233v-432l39 -39l147 -8v-119h-715z" />
    <glyph glyph-name="G" unicode="G" horiz-adv-x="1569" 
d="M813 692h707v-117l-129 -10l-33 -28v-467q-122 -48 -249.5 -71.5t-262.5 -23.5q-344 0 -555 197t-211 516q0 321 215 514t571 193q115 0 237 -18.5t255 -55.5v-373h-187l-47 248l-37 33q-44 10 -70 14t-48 4q-236 0 -369 -150t-133 -415q0 -253 138.5 -405t369.5 -152h33
v412l-35 28l-160 10v117z" />
    <glyph glyph-name="H" unicode="H" horiz-adv-x="1688" 
d="M57 1374h680v-119l-123 -8l-32 -39v-411h514v411l-33 39l-125 8v119h684v-119l-127 -8l-33 -39v-1042l33 -39l127 -8v-119h-684v119l125 8l33 39v479h-514v-479l32 -39l123 -8v-119h-680v119l125 8l35 39v1042l-35 39l-125 8v119z" />
    <glyph glyph-name="I" unicode="I" horiz-adv-x="840" 
d="M51 0v119l148 8l32 39v1051l-32 30l-148 8v119h731v-119l-151 -8l-33 -30v-1051l33 -39l151 -8v-119h-731z" />
    <glyph glyph-name="J" unicode="J" horiz-adv-x="1057" 
d="M516 1217l-35 30l-153 10v117h712v-117l-127 -10l-34 -30v-666q0 -304 -127 -440t-410 -136q-76 0 -155 12.5t-162 37.5v393h188l47 -279l27 -26q127 5 178 97t51 343v664z" />
    <glyph glyph-name="K" unicode="K" horiz-adv-x="1489" 
d="M51 0v119l137 8l33 39v1051l-33 30l-137 8v119h688v-119l-121 -10l-32 -28v-515h45l454 519l-10 24l-123 10v119h512v-119l-155 -10l-367 -418l428 -696l152 -12v-119h-527v80l-313 512h-96v-426l32 -39l121 -8v-119h-688z" />
    <glyph glyph-name="L" unicode="L" horiz-adv-x="1229" 
d="M59 0v119l123 8l39 39v1051l-26 30l-136 8v119h699v-119l-137 -8l-35 -30v-1076h348l24 35l29 256h203v-432h-1131z" />
    <glyph glyph-name="M" unicode="M" horiz-adv-x="1968" 
d="M39 0v119l143 8l25 39v1057l-25 24l-143 15v112h661v-59l283 -858l281 860v57h663v-112l-153 -15l-25 -28v-1053l25 -39l153 -8v-119h-663v119l127 8l18 39v1057h-4l-401 -1223h-207l-402 1223h-4v-1057l25 -39l135 -8v-119h-512z" />
    <glyph glyph-name="N" unicode="N" horiz-adv-x="1602" 
d="M47 0v115l125 12l39 39v1051l-27 30l-137 8v119h578v-55l587 -911v800l-36 39l-134 19v108h519v-108l-121 -19l-39 -39v-1208h-326l-678 1044v-878l29 -39l137 -12v-115h-516z" />
    <glyph glyph-name="O" unicode="O" horiz-adv-x="1669" 
d="M836 1249q-161 0 -255 -155.5t-94 -423.5q0 -251 98.5 -406t252.5 -155t248 158t94 425q0 254 -94.5 405.5t-249.5 151.5zM80 700q0 317 207.5 510t550.5 193q140 0 261.5 -37.5t213.5 -108.5q134 -103 205 -248t71 -315q0 -320 -214.5 -524.5t-553.5 -204.5
q-335 0 -538 202t-203 533z" />
    <glyph glyph-name="P" unicode="P" horiz-adv-x="1337" 
d="M586 635h28q148 0 218.5 75.5t70.5 233.5q0 134 -62.5 211.5t-170.5 77.5h-84v-598zM51 0v119l131 8l39 39v1051l-26 30l-144 8v119h664q287 0 430 -102t143 -307q0 -232 -147.5 -351.5t-433.5 -119.5q-49 0 -74 1t-47 3v-332l30 -39l152 -8v-119h-717z" />
    <glyph glyph-name="Q" unicode="Q" horiz-adv-x="1669" 
d="M487 680q0 -250 99 -404.5t254 -154.5q153 0 246.5 157t93.5 420q0 254 -93.5 402.5t-248.5 148.5q-161 0 -256 -153.5t-95 -415.5zM1047 12q3 -116 67 -172.5t191 -56.5q61 0 113 5.5t100 16.5v-122q-109 -27 -209 -40.5t-193 -13.5q-241 0 -351 85.5t-110 271.5v10
q-270 44 -420.5 230.5t-150.5 473.5q0 317 206 510t546 193q141 0 263.5 -37.5t213.5 -108.5q134 -103 205 -249.5t71 -319.5q0 -262 -149 -447.5t-393 -228.5z" />
    <glyph glyph-name="R" unicode="R" horiz-adv-x="1507" 
d="M578 1235v-500q8 0 23 -1t24 -1q147 0 221 65.5t74 194.5q0 112 -67 177t-181 65h-94zM57 1374h752q237 0 361 -87t124 -253q0 -148 -96.5 -236t-288.5 -114q66 -13 116 -35.5t85 -54.5q79 -71 148 -257q16 -41 24 -63q37 -92 86.5 -122.5t153.5 -30.5h24v-121
q-83 -6 -152.5 -9t-125.5 -3q-99 0 -174 27t-123 79q-49 53 -90 206q-18 65 -29 97q-38 110 -96 155.5t-158 45.5h-20v-432l32 -39l135 -8v-119h-688v119l131 8l33 39v1051l-33 30l-131 8v119z" />
    <glyph glyph-name="S" unicode="S" horiz-adv-x="1262" 
d="M121 49v379h190l47 -252l29 -31q39 -6 77.5 -9t78.5 -3q118 0 188 51.5t70 137.5q0 28 -9.5 53.5t-27.5 46.5q-48 53 -203 113q-76 28 -117 47q-159 71 -233 164.5t-74 224.5q0 194 145 312t388 118q102 0 213 -21t225 -61v-346h-190l-41 227l-25 25q-28 9 -58.5 13.5
t-64.5 4.5q-116 0 -182 -49t-66 -133q0 -115 253 -221q29 -12 44 -19q226 -95 299.5 -181.5t73.5 -223.5q0 -201 -158 -321t-426 -120q-90 0 -197.5 18t-248.5 56z" />
    <glyph glyph-name="T" unicode="T" horiz-adv-x="1323" 
d="M31 1374h1259v-411h-172l-43 247l-37 25h-194v-1069l39 -39l135 -8v-119h-717v119l137 8l39 39v1069h-198l-35 -25l-41 -247h-172v411z" />
    <glyph glyph-name="U" unicode="U" horiz-adv-x="1550" 
d="M33 1374h692v-119l-133 -8l-25 -30v-691q0 -191 72 -272.5t238 -81.5q158 0 223 85.5t65 307.5v652l-24 30l-146 8v119h516v-119l-131 -8l-26 -30v-678q0 -302 -136 -435t-444 -133q-179 0 -303.5 53t-196.5 160q-38 58 -54.5 133t-16.5 242v658l-25 30l-145 8v119z" />
    <glyph glyph-name="V" unicode="V" horiz-adv-x="1413" 
d="M-43 1374h670v-119l-125 -8l-23 -30l314 -846l309 846l-25 30l-129 8v119h506v-119l-145 -28l-461 -1227h-275l-471 1233l-145 22v119z" />
    <glyph glyph-name="W" unicode="W" horiz-adv-x="2077" 
d="M479 0l-338 1229l-135 26v119h633v-114l-129 -15l-16 -28l204 -762l277 919h278l285 -942l193 770l-25 29l-139 22v121h483v-121l-129 -26l-315 -1227h-258l-308 987l-303 -987h-258z" />
    <glyph glyph-name="X" unicode="X" horiz-adv-x="1460" 
d="M33 1374h686v-112l-129 -11l-17 -26l213 -344l256 336l-18 30l-109 15v112h512v-112l-129 -15l-403 -495l410 -613l139 -24v-115h-690v115l123 14l14 29l-225 356l-269 -356l13 -31l131 -12v-115h-527v115l133 12l404 518l-389 602l-129 15v112z" />
    <glyph glyph-name="Y" unicode="Y" horiz-adv-x="1374" 
d="M-20 1374h663v-117l-119 -10l-18 -28l264 -482l256 463l-16 37l-123 23v114h491v-119l-125 -18l-370 -639v-438l32 -31l146 -10v-119h-717v119l139 10l33 31v362l-397 713l-139 20v119z" />
    <glyph glyph-name="Z" unicode="Z" horiz-adv-x="1298" 
d="M121 1374h1059v-141l-691 -1092h457l25 29l35 256h188v-426h-1104v141l690 1096h-405l-39 -27l-35 -243h-180v407z" />
    <glyph glyph-name="bracketleft" unicode="[" horiz-adv-x="1014" 
d="M285 1450h639v-139h-322v-1442h322v-139h-639v1720z" />
    <glyph glyph-name="backslash" unicode="\" 
d="M-59 1374h184l876 -1564h-184z" />
    <glyph glyph-name="bracketright" unicode="]" horiz-adv-x="1014" 
d="M82 1450h639v-1720h-639v139h321v1442h-321v139z" />
    <glyph glyph-name="asciicircum" unicode="^" horiz-adv-x="2048" 
d="M1130 1462l502 -565h-104l-506 397l-506 -397h-104l503 565h215z" />
    <glyph glyph-name="underscore" unicode="_" 
d="M1024 -311v-172h-1024v172h1024z" />
    <glyph glyph-name="grave" unicode="`" 
d="M137 1532h305l201 -389h-176z" />
    <glyph glyph-name="a" unicode="a" horiz-adv-x="1262" 
d="M752 215v307q-165 -21 -235.5 -68t-70.5 -135q0 -64 43 -103.5t113 -39.5q32 0 69 10t81 29zM752 115q-110 -71 -202.5 -106.5t-170.5 -35.5q-132 0 -215.5 79t-83.5 204q0 94 52.5 169t139.5 107q70 26 193.5 58t290.5 67v60q0 99 -58 150t-170 51h-32v-213h-244
q-68 0 -95.5 19t-27.5 64q0 101 152 176.5t376 75.5q136 0 232 -35t149 -104q32 -41 46 -95.5t14 -176.5v-23v-465l22 -24l113 -13v-104h-453z" />
    <glyph glyph-name="b" unicode="b" horiz-adv-x="1331" 
d="M506 125h33q175 0 259.5 95.5t84.5 293.5q0 155 -79.5 234t-234.5 79q-25 0 -38.5 -0.5t-24.5 -1.5v-700zM385 1522h119v-604q127 71 198.5 94.5t143.5 23.5q173 0 293.5 -137.5t120.5 -341.5q0 -277 -184.5 -421t-540.5 -144q-75 0 -110 0.5t-63 1.5l-198 8v1303h-144
v98z" />
    <glyph glyph-name="c" unicode="c" horiz-adv-x="1100" 
d="M1069 98q-129 -60 -237 -87t-214 -27q-251 0 -399.5 140.5t-148.5 375.5q0 241 165 389.5t433 148.5q175 0 284 -72.5t109 -187.5q0 -74 -52.5 -121t-136.5 -47q-43 0 -82.5 12t-80.5 37v271q-126 -13 -195.5 -115.5t-69.5 -275.5q0 -163 85 -264t221 -101
q56 0 128.5 23.5t190.5 83.5v-183z" />
    <glyph glyph-name="d" unicode="d" horiz-adv-x="1360" 
d="M844 207v665q-39 16 -72.5 23.5t-62.5 7.5q-120 0 -186 -97t-66 -274q0 -169 68 -252t206 -83q22 0 51 2.5t62 7.5zM844 1300h-148v101l371 121h113v-1375l26 -34l117 -9v-104h-479v125q-124 -81 -201.5 -111t-150.5 -30q-184 0 -299 142t-115 370q0 242 151.5 394
t391.5 152q42 0 96.5 -5.5t126.5 -16.5v280z" />
    <glyph glyph-name="e" unicode="e" horiz-adv-x="1208" 
d="M776 635q0 142 -38 209t-117 67q-89 0 -134 -67.5t-45 -200.5v-8h334zM1135 289v-189q-117 -59 -240 -87.5t-260 -28.5q-256 0 -406.5 142.5t-150.5 383.5t155 387.5t410 146.5q237 0 367.5 -134t130.5 -378v-26h-706q3 -152 83.5 -240t214.5 -88q104 0 203 27.5
t199 83.5z" />
    <glyph glyph-name="f" unicode="f" horiz-adv-x="793" 
d="M72 0v117l96 10l27 33v674h-144v94l144 90q3 110 35 193.5t98 152.5q73 75 179.5 121.5t205.5 46.5q114 0 178.5 -48.5t64.5 -133.5q0 -59 -39.5 -97t-130.5 -65l-221 231q-16 -29 -26.5 -100.5t-10.5 -163.5q0 -29 0.5 -44t1.5 -29l2 -97h277v-151h-277v-680l33 -29
l154 -10v-115h-647z" />
    <glyph glyph-name="g" unicode="g" horiz-adv-x="1255" 
d="M401 16q-10 -29 -15 -57.5t-5 -56.5q0 -93 70.5 -157t173.5 -64q91 0 147.5 46t56.5 119q0 106 -246 143q-15 2 -22 3zM743 711q0 94 -38.5 150.5t-102.5 56.5q-65 0 -105 -61.5t-40 -162.5q0 -115 38.5 -180t104.5 -65q68 0 105.5 68.5t37.5 193.5zM944 967h324v-136
h-226q21 -31 31 -66.5t10 -78.5q0 -161 -132 -250.5t-373 -89.5q-17 0 -38.5 1.5t-47.5 4.5q-5 -12 -7 -27t-2 -34q0 -18 2 -33t7 -29l88 -8q369 -42 478 -104t109 -191q0 -155 -177.5 -262.5t-446.5 -107.5q-237 0 -364.5 74t-127.5 210q0 96 60 153.5t159 57.5
q-18 35 -27.5 64.5t-9.5 56.5q0 53 31 97.5t101 90.5q-137 45 -202 121.5t-65 192.5q0 170 131.5 265t368.5 95q69 0 149.5 -15.5t196.5 -51.5z" />
    <glyph glyph-name="h" unicode="h" horiz-adv-x="1366" 
d="M397 1522h117v-617q138 71 228 101t159 30q154 0 225.5 -88.5t71.5 -281.5v-521l23 -26l110 -10v-109h-575v109l82 10l22 26v437q0 134 -47.5 184.5t-167.5 50.5q-54 0 -81.5 -1.5t-49.5 -4.5v-666l29 -26l86 -10v-109h-584v109l105 10l24 26v1160h-145v98z" />
    <glyph glyph-name="i" unicode="i" horiz-adv-x="725" 
d="M418 1038h119v-893l26 -26l125 -10v-109h-637v109l121 10l23 26v674h-132v101zM180 1325q0 85 52.5 138t136.5 53q80 0 134 -52.5t54 -128.5q0 -86 -54.5 -141t-137.5 -55q-78 0 -131.5 53.5t-53.5 132.5z" />
    <glyph glyph-name="j" unicode="j" horiz-adv-x="721" 
d="M209 1327q0 82 51 135.5t129 53.5q87 0 142 -51t55 -130q0 -86 -55 -141t-138 -55q-79 0 -131.5 53t-52.5 135zM227 819h-151v96l393 123h98v-809q0 -329 -131.5 -501t-382.5 -172q-116 0 -181 49t-65 135q0 70 49.5 119t122.5 51l218 -254q16 81 23 176.5t7 261.5v58
v667z" />
    <glyph glyph-name="k" unicode="k" horiz-adv-x="1276" 
d="M47 0v104l105 11l26 32v1158h-149v98l393 119h94v-983h57l289 331l-14 21l-94 8v107h465v-107l-146 -14l-196 -221l305 -549l121 -11v-104h-484v92l-209 371h-94v-324l19 -24l112 -11v-104h-600z" />
    <glyph glyph-name="l" unicode="l" horiz-adv-x="717" 
d="M39 0v104l119 17l26 24v1155h-141v101l379 121h104v-1370l29 -33l125 -15v-104h-641z" />
    <glyph glyph-name="m" unicode="m" horiz-adv-x="2030" 
d="M1165 893q129 73 230 109t176 36q153 0 225 -89.5t72 -282.5v-521l20 -26l113 -10v-109h-576v109l80 10l25 26v437q0 134 -47.5 184.5t-167.5 50.5q-43 0 -71.5 -3.5t-51.5 -10.5v-658l25 -28l90 -11v-106h-547v113l74 4l24 35v456q0 110 -48.5 159.5t-156.5 49.5h-37
q-31 0 -48 -1.5t-31 -4.5v-666l26 -26l76 -10v-109h-573v109l106 10l23 26v674h-129v101l352 118h119v-133q115 68 205 100.5t163 32.5q82 0 143.5 -34.5t116.5 -110.5z" />
    <glyph glyph-name="n" unicode="n" horiz-adv-x="1389" 
d="M66 0v109l106 10l23 26v674h-144v101l367 118h119v-133q144 75 231 104t154 29q153 0 225 -89.5t72 -282.5v-521l22 -26l111 -10v-109h-574v109l80 10l25 26v437q0 133 -48.5 184t-168.5 51q-54 0 -80.5 -1.5t-48.5 -4.5v-666l26 -26l86 -10v-109h-583z" />
    <glyph glyph-name="o" unicode="o" horiz-adv-x="1331" 
d="M670 911q-106 0 -157.5 -98t-51.5 -301q0 -205 51 -302t158 -97q105 0 154.5 93.5t49.5 293.5q0 213 -49 312t-155 99zM682 1038q269 0 422 -140.5t153 -385.5q0 -250 -154.5 -388t-436.5 -138q-281 0 -434.5 137.5t-153.5 388.5q0 249 159 387.5t445 138.5z" />
    <glyph glyph-name="p" unicode="p" horiz-adv-x="1366" 
d="M525 127q12 -1 26 -1.5t33 -0.5q158 0 236.5 96.5t78.5 290.5q0 150 -67.5 227.5t-198.5 77.5q-25 0 -51.5 -2t-57.5 -6zM47 -451v117l117 8l22 31v1114h-143v101l375 118h106v-137q123 76 204.5 106.5t154.5 30.5q171 0 285 -139.5t114 -355.5q0 -244 -162.5 -393.5
t-431.5 -149.5q-27 0 -64.5 2.5t-99.5 7.5v-315l27 -25l131 -8v-113h-635z" />
    <glyph glyph-name="q" unicode="q" horiz-adv-x="1341" 
d="M842 903q-7 0 -20.5 1t-20.5 1q-177 0 -261.5 -95.5t-84.5 -295.5q0 -156 80 -235.5t237 -79.5q21 0 64 3q4 1 6 1v700zM1187 1020q0 -23 -3.5 -52t-3.5 -36v-1235l30 -25l101 -8v-110h-637v116l139 4l29 25v412q-100 -61 -187 -90t-166 -29q-173 0 -292 137t-119 342
q0 277 184 421t539 144q109 0 204.5 -4t181.5 -12z" />
    <glyph glyph-name="r" unicode="r" horiz-adv-x="999" 
d="M59 0v109l113 10l23 26v674h-154v101l377 118h119l-19 -233q65 71 134 127.5t141 97.5q10 0 30 2t29 2q42 0 74.5 -9.5t58.5 -29.5l-57 -395h-146q-27 71 -75 104t-123 33q-19 0 -29 -0.5t-18 -1.5v-590l26 -26l154 -10v-109h-658z" />
    <glyph glyph-name="s" unicode="s" horiz-adv-x="1071" 
d="M946 987v-313h-147l-27 162l-27 28q-41 19 -78 28t-71 9q-72 0 -114 -29.5t-42 -78.5q0 -87 184 -155q60 -22 93 -36q161 -66 219.5 -130t58.5 -163q0 -142 -134.5 -239t-338.5 -97q-97 0 -206.5 15t-229.5 45v342h147l25 -187l23 -26q54 -26 107.5 -38.5t107.5 -12.5
q70 0 111.5 32t41.5 86q0 78 -144 139l-48 21q-223 98 -291 166.5t-68 165.5q0 143 125.5 232t331.5 89q78 0 174.5 -13.5t216.5 -41.5z" />
    <glyph glyph-name="t" unicode="t" horiz-adv-x="834" 
d="M176 834h-147v94l176 110l129 238h182v-291h311v-151h-311v-478q0 -105 40.5 -141.5t156.5 -36.5q24 0 52 3t62 9v-118q-109 -41 -204.5 -62.5t-169.5 -21.5q-81 0 -144 25t-98 71q-19 25 -27 71.5t-8 147.5v531z" />
    <glyph glyph-name="u" unicode="u" horiz-adv-x="1366" 
d="M391 1038h123v-594q0 -146 44 -194.5t167 -48.5q26 0 56 1.5t60 4.5l1 612h-129v101l356 118h115v-891l20 -28l121 -8v-111h-483v113q-121 -72 -210.5 -101.5t-180.5 -29.5q-78 0 -139.5 33t-98.5 94q-24 40 -34.5 89.5t-10.5 149.5v25v446h-127v101z" />
    <glyph glyph-name="v" unicode="v" horiz-adv-x="1157" 
d="M-16 1010h616v-115l-113 -8l-18 -23l199 -532l215 530l-13 25l-104 8v115h428v-115l-123 -8l-360 -887h-260l-342 887l-125 8v115z" />
    <glyph glyph-name="w" unicode="w" horiz-adv-x="1788" 
d="M0 1010h588v-115l-99 -18l-22 -25l158 -522l217 680h288l220 -680l163 528l-14 23l-110 14v115h421v-115l-118 -8l-277 -887h-291l-221 702l-223 -702h-287l-266 887l-127 8v115z" />
    <glyph glyph-name="x" unicode="x" horiz-adv-x="1214" 
d="M18 1010h566v-95l-64 -14l-8 -24l164 -224l168 234l-86 18v105h397v-115l-119 -8l-264 -318l322 -444l102 -21v-104h-543v86l62 23l8 20l-180 248l-187 -258l84 -15v-104h-422v104l134 29l288 340l-307 414l-115 8v115z" />
    <glyph glyph-name="y" unicode="y" horiz-adv-x="1161" 
d="M-16 1006h614v-101l-104 -14l-19 -25l211 -530l203 528l-21 27l-110 14v101h436v-101l-113 -20l-397 -928q-80 -187 -208.5 -300.5t-258.5 -113.5q-85 0 -145 57t-60 136q0 64 44.5 112.5t121.5 67.5l174 -166q46 28 85.5 75t76.5 118l-405 938l-125 24v101z" />
    <glyph glyph-name="z" unicode="z" horiz-adv-x="1139" 
d="M100 0v154l535 725h-305l-25 -29l-22 -178h-170v334h915v-136l-543 -737h340l35 35l23 203h180v-371h-963z" />
    <glyph glyph-name="braceleft" unicode="{" 
d="M903 1313q-146 -6 -200 -60.5t-54 -205.5v-86q0 -162 -83.5 -251.5t-254.5 -109.5q171 -20 254.5 -108.5t83.5 -249.5v-131q0 -141 54.5 -193t199.5 -56v-134h-67q-286 0 -394 83t-108 298v155q0 151 -52.5 208.5t-187.5 57.5h-33v140h33q135 0 187.5 57.5t52.5 208.5
v133q0 213 107 296t393 83h69v-135z" />
    <glyph glyph-name="bar" unicode="|" 
d="M602 1565v-2048h-178v2048h178z" />
    <glyph glyph-name="braceright" unicode="}" 
d="M109 1448h67q286 0 394 -83t108 -296v-133q0 -152 53 -209t189 -57h30v-140h-32q-136 0 -188 -56.5t-52 -209.5v-155q0 -214 -108.5 -297.5t-393.5 -83.5h-67v135q144 3 197.5 55t53.5 193v131q0 160 84.5 249t255.5 109q-170 20 -255 109.5t-85 251.5v86q0 152 -53 206
t-198 60v135z" />
    <glyph glyph-name="asciitilde" unicode="~" horiz-adv-x="1706" 
d="M1530 600q-103 -71 -197.5 -106t-183.5 -35q-44 0 -92.5 8.5t-98.5 26.5q-25 8 -76 26q-212 74 -319 74q-82 0 -174 -38t-211 -122v187q106 72 202 107.5t185 35.5q62 0 125.5 -12t168.5 -48q13 -4 42 -15q164 -58 250 -58q85 0 177 37t202 116v-184z" />
    <glyph glyph-name="Euro" horiz-adv-x="1319" 
d="M1243 51q-122 -43 -216.5 -59.5t-209.5 -16.5q-226 0 -379 137.5t-198 381.5h-211l26 118l170 1q-1 13 -1.5 28t-0.5 47q0 43 1 64t3 39h-198l26 118h193q52 229 210 359.5t380 130.5q121 0 223.5 -21t181.5 -61v-350h-166l-49 241l-35 33q-25 10 -63.5 17.5t-69.5 7.5
q-110 0 -172.5 -87t-81.5 -270h391l-26 -118l-373 -1q-1 -16 -1.5 -37t-0.5 -63q0 -13 1 -39.5t1 -38.5h324l-27 -118h-289q22 -192 91 -287.5t184 -95.5q32 0 61 4.5t51 13.5l33 31l53 254h164v-363z" />
    <glyph glyph-name="Euro" unicode="&#x20ac;" horiz-adv-x="1319" 
d="M1243 51q-122 -43 -216.5 -59.5t-209.5 -16.5q-226 0 -379 137.5t-198 381.5h-211l26 118l170 1q-1 13 -1.5 28t-0.5 47q0 43 1 64t3 39h-198l26 118h193q52 229 210 359.5t380 130.5q121 0 223.5 -21t181.5 -61v-350h-166l-49 241l-35 33q-25 10 -63.5 17.5t-69.5 7.5
q-110 0 -172.5 -87t-81.5 -270h391l-26 -118l-373 -1q-1 -16 -1.5 -37t-0.5 -63q0 -13 1 -39.5t1 -38.5h324l-27 -118h-289q22 -192 91 -287.5t184 -95.5q32 0 61 4.5t51 13.5l33 31l53 254h164v-363z" />
    <glyph glyph-name="nonbreakingspace" unicode="&#xa0;" horiz-adv-x="1319" 
 />
    <glyph glyph-name="exclamdown" unicode="&#xa1;" horiz-adv-x="702" 
d="M285 936h116l133 -673q7 -35 11 -61t4 -38q0 -80 -56 -128t-149 -48q-91 0 -147 48.5t-56 127.5q0 21 2.5 42.5t7.5 44.5zM346 1407q79 0 136 -57.5t57 -137.5q0 -82 -56 -138t-137 -56q-82 0 -139 56.5t-57 137.5q0 80 58 137.5t138 57.5z" />
    <glyph glyph-name="cent" unicode="&#xa2;" horiz-adv-x="1319" 
d="M717 926q-119 -32 -185.5 -137t-66.5 -263q0 -147 67.5 -249t184.5 -134v783zM717 1276h133v-209q85 -6 159.5 -23.5t141.5 -46.5v-290h-150l-28 190q-35 16 -65 23.5t-58 7.5v-789q30 0 61 5.5t64 17.5l33 203h149v-308q-69 -22 -145.5 -36.5t-161.5 -20.5v-219h-133
l-1 219q-272 8 -437.5 155.5t-165.5 379.5t163.5 377.5t440.5 155.5v208z" />
    <glyph glyph-name="sterling" unicode="&#xa3;" horiz-adv-x="1319" 
d="M909 975v282q-19 4 -33 5.5t-24 1.5q-113 0 -162 -88t-49 -299q0 -35 1 -67t3 -58h369v-152h-366q-6 -129 -58.5 -210t-161.5 -128l6 -26q53 10 94 15t66 5h625v-256h-1117v180q107 21 157 105.5t50 244.5q0 28 -0.5 43t-1.5 27h-145v152h141q-2 33 -3 65t-1 74
q0 241 128.5 372.5t365.5 131.5q189 0 310.5 -75t121.5 -187q0 -85 -51 -133t-142 -48q-34 0 -64.5 5.5t-58.5 17.5z" />
    <glyph glyph-name="currency" unicode="&#xa4;" horiz-adv-x="1319" 
d="M1243 51q-122 -43 -216.5 -59.5t-209.5 -16.5q-226 0 -379 137.5t-198 381.5h-211l26 118l170 1q-1 13 -1.5 28t-0.5 47q0 43 1 64t3 39h-198l26 118h193q52 229 210 359.5t380 130.5q121 0 223.5 -21t181.5 -61v-350h-166l-49 241l-35 33q-25 10 -63.5 17.5t-69.5 7.5
q-110 0 -172.5 -87t-81.5 -270h391l-26 -118l-373 -1q-1 -16 -1.5 -37t-0.5 -63q0 -13 1 -39.5t1 -38.5h324l-27 -118h-289q22 -192 91 -287.5t184 -95.5q32 0 61 4.5t51 13.5l33 31l53 254h164v-363z" />
    <glyph glyph-name="yen" unicode="&#xa5;" horiz-adv-x="1374" 
d="M-20 1374h663v-117l-119 -10l-18 -28l264 -482l256 463l-16 37l-123 23v114h491v-119l-125 -18l-200 -348h260v-119h-328l-102 -178h430v-119h-430v-313l32 -31l146 -10v-119h-717v119l139 10l33 31v313h-455v119h414l-96 178h-318v119h248l-190 346l-139 20v119z" />
    <glyph glyph-name="brokenbar" unicode="&#xa6;" 
d="M602 408v-758h-178v758h178zM602 1432v-758h-178v758h178z" />
    <glyph glyph-name="section" unicode="&#xa7;" 
d="M428 831q-83 -27 -124.5 -71t-41.5 -105q0 -71 73 -135t257 -149q81 40 119.5 85t38.5 99q0 67 -75 132t-247 144zM901 1423v-295h-125l-20 172q-48 28 -91.5 41t-84.5 13q-82 0 -134.5 -43t-52.5 -109q0 -90 199 -185q53 -25 82 -40q154 -78 222.5 -161t68.5 -189
q0 -108 -66.5 -197t-181.5 -135q110 -67 156.5 -130t46.5 -142q0 -145 -118.5 -230.5t-322.5 -85.5q-94 0 -186 17.5t-184 52.5v295h137l26 -191q47 -25 90.5 -37t86.5 -12q84 0 137 43t53 111q0 103 -246 220q-53 25 -82 40q-127 63 -190.5 148t-63.5 194t59.5 187.5
t182.5 131.5q-102 57 -148.5 120.5t-46.5 148.5q0 137 121.5 219t329.5 82q74 0 157.5 -13t188.5 -41z" />
    <glyph glyph-name="dieresis" unicode="&#xa8;" 
d="M745 1493q64 0 110 -49t46 -117q0 -67 -46 -115.5t-110 -48.5q-66 0 -111.5 47.5t-45.5 116.5t46.5 117.5t110.5 48.5zM279 1493q63 0 109 -49t46 -117q0 -67 -46 -115.5t-109 -48.5q-66 0 -111 47.5t-45 116.5t45.5 117.5t110.5 48.5z" />
    <glyph glyph-name="copyright" unicode="&#xa9;" horiz-adv-x="1843" 
d="M1262 262q-78 -26 -156.5 -38.5t-161.5 -12.5q-223 0 -367.5 137t-144.5 346q0 208 147 344t375 136q89 0 165.5 -13.5t142.5 -40.5v-252h-127l-35 170l-25 23q-31 5 -46 6.5t-30 1.5q-132 0 -214.5 -102.5t-82.5 -270.5q0 -173 81 -277t212 -104q23 0 43 1.5t40 5.5
l22 20l35 178h127v-258zM928 1403q-139 0 -268 -54.5t-228 -154.5q-101 -105 -154 -231.5t-53 -266.5q0 -143 52.5 -269t154.5 -228q104 -103 229 -155t265 -52q142 0 267.5 53t223.5 154q100 103 153.5 231.5t53.5 265.5q0 141 -53.5 272t-151.5 228q-98 98 -227 152.5
t-264 54.5zM926 1501q158 0 308.5 -63t264.5 -176q110 -112 171 -262t61 -312q0 -156 -65 -305t-183 -264q-116 -113 -261 -171.5t-309 -58.5q-152 0 -297.5 62t-259.5 176q-116 116 -176.5 262t-60.5 307q0 159 60.5 304.5t174.5 261.5q113 114 262.5 176.5t309.5 62.5z
" />
    <glyph glyph-name="ordfeminine" unicode="&#xaa;" horiz-adv-x="946" 
d="M563 819v215q-124 -16 -175.5 -49t-51.5 -94q0 -45 32 -72.5t85 -27.5q25 0 52.5 7t57.5 21zM563 748q-82 -50 -151 -74.5t-127 -24.5q-100 0 -163 55.5t-63 143.5q0 64 40 116.5t106 75.5q54 19 147.5 41.5t214.5 46.5v41q0 70 -43 106t-127 36h-24v-150h-185
q-50 0 -71 14t-21 46q0 70 114.5 123t283.5 53q101 0 172.5 -25t111.5 -74q25 -29 35 -67.5t10 -122.5v-16v-326l17 -16l86 -9v-73h-340z" />
    <glyph glyph-name="guillemotleft" unicode="&#xab;" horiz-adv-x="938" 
d="M868 897v-207l-211 -198l211 -197v-207l-383 311v185zM449 897v-207l-211 -198l211 -197v-207l-383 311v185z" />
    <glyph glyph-name="logicalnot" unicode="&#xac;" horiz-adv-x="1706" 
d="M1452 862v-502h-166v336h-1032v166h1198z" />
    <glyph glyph-name="sfthyphen" unicode="&#xad;" horiz-adv-x="682" 
d="M51 627h580v-267h-580v267z" />
    <glyph glyph-name="registered" unicode="&#xae;" horiz-adv-x="1843" 
d="M838 1053v-326q5 0 15 -1t15 -1q94 0 142.5 43.5t48.5 126.5q0 73 -43.5 115.5t-118.5 42.5h-59zM500 1143h487q155 0 235.5 -56.5t80.5 -164.5q0 -97 -63.5 -155t-186.5 -75q147 -26 229 -236q8 -21 12 -32q23 -58 53.5 -78t92.5 -20h10v-80q-43 -4 -79.5 -6t-67.5 -2
q-123 0 -179.5 41t-95.5 178q-31 110 -68.5 145t-109.5 35h-12v-283l20 -24l88 -6v-78h-446v78l82 8l24 22v686l-24 21l-82 6v76zM926 1501q158 0 308.5 -63t264.5 -176q110 -112 171 -262t61 -312q0 -156 -65 -305t-183 -264q-116 -113 -261 -171.5t-309 -58.5
q-152 0 -297.5 62t-259.5 176q-116 116 -176.5 262t-60.5 307q0 159 60.5 304.5t174.5 261.5q113 114 262.5 176.5t309.5 62.5zM928 1403q-139 0 -268 -54.5t-228 -154.5q-100 -104 -152.5 -230.5t-52.5 -267.5q0 -144 52 -270t153 -227q104 -103 229 -155t265 -52
q142 0 267.5 53t223.5 154q100 103 153.5 231.5t53.5 265.5q0 141 -53.5 272t-151.5 228q-98 98 -227 152.5t-264 54.5z" />
    <glyph glyph-name="macron" unicode="&#xaf;" 
d="M141 1399h740v-170h-740v170z" />
    <glyph glyph-name="degree" unicode="&#xb0;" horiz-adv-x="674" 
d="M522 1165q0 77 -53.5 131t-130.5 54t-131.5 -54t-54.5 -131q0 -76 54.5 -131t131.5 -55t130.5 54.5t53.5 131.5zM338 1460q123 0 209 -87t86 -210q0 -121 -87 -208t-210 -87t-208 85.5t-85 209.5q0 125 86 211t209 86z" />
    <glyph glyph-name="plusminus" unicode="&#xb1;" horiz-adv-x="1706" 
d="M1452 182v-168h-1198v168h1198zM938 1206v-334h514v-165h-514v-334h-170v334h-514v165h514v334h170z" />
    <glyph glyph-name="twosuperior" unicode="&#xb2;" horiz-adv-x="870" 
d="M283 702h370l25 111h106v-264h-708v119q235 152 333.5 259.5t98.5 207.5q0 76 -46 117.5t-130 41.5h-27v-186q-36 -14 -63 -20.5t-49 -6.5q-56 0 -89.5 28.5t-33.5 74.5q0 90 94 147.5t248 57.5q160 0 253 -66.5t93 -179.5q0 -114 -115.5 -221t-359.5 -220z" />
    <glyph glyph-name="threesuperior" unicode="&#xb3;" horiz-adv-x="870" 
d="M492 983q136 -6 211 -59.5t75 -145.5q0 -105 -111 -175.5t-284 -70.5q-155 0 -245.5 46t-90.5 122q0 47 33.5 76t89.5 29q17 0 35.5 -3t40.5 -9l47 -162q29 -6 45.5 -8t30.5 -2q73 0 117 41.5t44 109.5q0 69 -51.5 108.5t-140.5 39.5q-22 0 -45.5 -3t-44.5 -7v108
q9 -2 20.5 -3t32.5 -1q91 0 144 36.5t53 100.5q0 69 -47.5 108t-131.5 39q-4 0 -12 -1t-12 -1v-172q-24 -10 -47 -15t-47 -5q-58 0 -92.5 27.5t-34.5 72.5q0 81 94.5 131.5t249.5 50.5q149 0 237 -56t88 -150q0 -76 -65.5 -127.5t-185.5 -69.5z" />
    <glyph glyph-name="acute" unicode="&#xb4;" 
d="M608 1532h305l-329 -389h-176z" />
    <glyph glyph-name="mu" unicode="&#xb5;" horiz-adv-x="1184" 
d="M68 373l108 512h207l-100 -467q-10 -46 -15.5 -82t-5.5 -57q0 -64 37 -101t102 -37q87 0 139 53.5t76 167.5l111 523h209l-113 -533l-3 -15q-15 -70 -15 -110q0 -42 22.5 -66t63.5 -24q40 0 71 21.5t58 68.5q9 17 23 49q25 60 51 60q11 0 16.5 -7.5t5.5 -23.5
q0 -28 -17 -85.5t-40 -100.5q-41 -72 -95.5 -108t-123.5 -36q-84 0 -129.5 55t-47.5 156q-42 -104 -109.5 -157.5t-156.5 -53.5q-99 0 -156.5 58t-68.5 168q-23 -124 -48 -315q-39 -306 -134 -306q-47 0 -73 26.5t-26 74.5q0 52 69 282.5t108 409.5z" />
    <glyph glyph-name="paragraph" unicode="&#xb6;" 
d="M569 498h-28q-261 0 -388.5 107.5t-127.5 326.5q0 230 127 336t405 106h416v-102l-129 -21v-1413h-133v1424h-142v-764z" />
    <glyph glyph-name="periodcentered" unicode="&#xb7;" horiz-adv-x="659" 
d="M328 883q81 0 138.5 -58t57.5 -139q0 -79 -58 -135.5t-138 -56.5t-136.5 56t-56.5 136q0 83 56 140t137 57z" />
    <glyph glyph-name="cedilla" unicode="&#xb8;" 
d="M451 0h124v-106h23q86 0 132 -42.5t46 -121.5q0 -99 -71 -156t-195 -57q-34 0 -75 5.5t-99 19.5v118q48 -9 83 -13.5t60 -4.5q47 0 74 17.5t27 47.5q0 28 -23 44t-63 16q-7 0 -16.5 -1t-26.5 -3v237z" />
    <glyph glyph-name="onesuperior" unicode="&#xb9;" horiz-adv-x="870" 
d="M455 1382h139v-739l14 -18l150 -7v-69h-574v72l156 6l16 22v572l-16 14l-195 -25v74z" />
    <glyph glyph-name="ordmasculine" unicode="&#xba;" horiz-adv-x="999" 
d="M502 1307q-79 0 -117.5 -69.5t-38.5 -211.5q0 -143 38 -210.5t118 -67.5q79 0 116 65t37 205q0 150 -37 219.5t-116 69.5zM512 1395q202 0 317 -98.5t115 -270.5q0 -175 -116.5 -272t-327.5 -97t-326 96.5t-115 272.5q0 175 119 272t334 97z" />
    <glyph glyph-name="guillemotright" unicode="&#xbb;" horiz-adv-x="938" 
d="M485 897l383 -313v-185l-383 -311v207l211 197l-211 198v207zM66 897l383 -313v-185l-383 -311v207l210 197l-210 198v207z" />
    <glyph glyph-name="onequarter" unicode="&#xbc;" horiz-adv-x="2003" 
d="M1608 590l-267 -291h267v291zM1634 776h181v-477h151v-109h-151v-219h-207v219h-404v113zM1356 1374h164l-877 -1374h-164zM434 1382h133v-690l15 -16l141 -6v-66h-547v66l150 8l16 18v535l-16 12l-187 -20v67z" />
    <glyph glyph-name="onehalf" unicode="&#xbd;" horiz-adv-x="2003" 
d="M1442 143h354l23 103h102v-246h-678v111q227 143 320.5 242.5t93.5 193.5q0 71 -44 110t-124 39q-10 0 -16 -0.5t-11 -1.5v-172q-31 -12 -57 -18t-49 -6q-53 0 -85 26t-32 70q0 84 90 137t236 53q152 0 240.5 -61.5t88.5 -167.5t-109.5 -205.5t-342.5 -206.5zM1356 1374
h164l-877 -1374h-164zM434 1382h133v-690l15 -16l141 -6v-66h-547v66l150 8l16 18v535l-16 12l-187 -20v67z" />
    <glyph glyph-name="threequarters" unicode="&#xbe;" horiz-adv-x="2003" 
d="M1610 590l-267 -291h267v291zM1636 776h181v-477h151v-109h-151v-219h-207v219h-404v113zM1358 1374h164l-877 -1374h-164zM469 1010q131 -6 202.5 -56.5t71.5 -136.5q0 -97 -106 -162t-270 -65q-149 0 -235.5 42t-86.5 113q0 44 32 70.5t85 26.5q19 0 37 -2.5t37 -8.5
l43 -149q28 -6 44.5 -8t28.5 -2q69 0 112.5 39t43.5 102q0 64 -49.5 100.5t-134.5 36.5q-19 0 -38 -1.5t-50 -6.5v98q10 -1 20 -1.5t31 -0.5q88 0 138 34t50 93q0 65 -45.5 102.5t-124.5 37.5q-4 0 -12 -1t-12 -1v-160q-23 -11 -45 -16t-46 -5q-53 0 -85.5 26t-32.5 69
q0 74 90.5 121.5t236.5 47.5q141 0 226.5 -52.5t85.5 -139.5q0 -72 -63 -120t-179 -64z" />
    <glyph glyph-name="questiondown" unicode="&#xbf;" horiz-adv-x="1063" 
d="M539 946h157v-252q-155 -50 -232 -131.5t-77 -193.5q0 -113 68.5 -173.5t197.5 -62.5l105 260q8 1 18.5 1.5t30.5 0.5q87 0 133.5 -37.5t46.5 -107.5q0 -116 -120 -190t-312 -74q-242 0 -380 101.5t-138 279.5q0 164 125 276.5t377 173.5v129zM612 1401q79 0 136 -57.5
t57 -137.5q0 -82 -56 -138t-137 -56t-138.5 56.5t-57.5 137.5q0 80 58 137.5t138 57.5z" />
    <glyph glyph-name="Agrave" unicode="&#xc0;" horiz-adv-x="1436" 
d="M623 1051l-162 -453h327zM569 1384h295l475 -1249l125 -16v-119h-663v119l139 10l16 27l-108 305h-436l-103 -303l21 -25l131 -14v-119h-494v119l133 8zM344 1892h305l201 -389h-176z" />
    <glyph glyph-name="Aacute" unicode="&#xc1;" horiz-adv-x="1436" 
d="M623 1051l-162 -453h327zM569 1384h295l475 -1249l125 -16v-119h-663v119l139 10l16 27l-108 305h-436l-103 -303l21 -25l131 -14v-119h-494v119l133 8zM815 1892h305l-329 -389h-176z" />
    <glyph glyph-name="Acircumflex" unicode="&#xc2;" horiz-adv-x="1436" 
d="M623 1051l-162 -453h327zM569 1384h295l475 -1249l125 -16v-119h-663v119l139 10l16 27l-108 305h-436l-103 -303l21 -25l131 -14v-119h-494v119l133 8zM604 1892h230l225 -389h-207l-133 223l-133 -223h-207z" />
    <glyph glyph-name="Atilde" unicode="&#xc3;" horiz-adv-x="1436" 
d="M623 1051l-162 -453h327zM569 1384h295l475 -1249l125 -16v-119h-663v119l139 10l16 27l-108 305h-436l-103 -303l21 -25l131 -14v-119h-494v119l133 8zM930 1869h135v-28q0 -145 -46.5 -215t-143.5 -70q-75 0 -175 46t-124 46q-38 0 -57 -27.5t-19 -80.5v-17h-137
q0 8 -1 21.5t-1 19.5q0 135 48.5 203t145.5 68q70 0 170.5 -44.5t130.5 -44.5q38 0 56 25.5t18 79.5v18z" />
    <glyph glyph-name="Adieresis" unicode="&#xc4;" horiz-adv-x="1436" 
d="M623 1051l-162 -453h327zM569 1384h295l475 -1249l125 -16v-119h-663v119l139 10l16 27l-108 305h-436l-103 -303l21 -25l131 -14v-119h-494v119l133 8zM952 1853q64 0 110 -49t46 -117q0 -67 -46 -115.5t-110 -48.5q-66 0 -111.5 47.5t-45.5 116.5t46.5 117.5
t110.5 48.5zM486 1853q63 0 109 -49t46 -117q0 -67 -46 -115.5t-109 -48.5q-66 0 -111 47.5t-45 116.5t45.5 117.5t110.5 48.5z" />
    <glyph glyph-name="Aring" unicode="&#xc5;" horiz-adv-x="1436" 
d="M623 1051l-162 -453h327zM567 1384h297l475 -1249l125 -16v-119h-663v119l139 10l16 27l-108 305h-436l-103 -303l21 -25l131 -14v-119h-494v119l133 8zM690 1851q-49 0 -85 -36t-36 -86q0 -51 36 -87t85 -36q52 0 88.5 36t36.5 87q0 50 -36.5 86t-88.5 36zM690 1972
q103 0 174.5 -71.5t71.5 -174.5q0 -102 -71 -172.5t-175 -70.5q-103 0 -173.5 70.5t-70.5 172.5q0 104 71 175t173 71z" />
    <glyph glyph-name="AE" unicode="&#xc6;" horiz-adv-x="1972" 
d="M866 1247l-366 -612h366v612zM510 1374h1313v-342h-174l-33 182l-29 23h-364v-455h215l30 29l21 147h143v-503h-143l-21 147l-30 29h-215v-494h428l28 33l37 227h170v-397h-1190v119l138 8l32 39v321h-460l-195 -329l20 -25l119 -14v-119h-485v119l135 8l657 1090l-26 30
l-121 8v119z" />
    <glyph glyph-name="Ccedilla" unicode="&#xc7;" horiz-adv-x="1399" 
d="M1309 49q-111 -39 -228.5 -58.5t-242.5 -19.5q-118 0 -225 27t-191 78q-161 96 -250.5 257.5t-89.5 354.5q0 146 56 276.5t161 231.5q103 100 243 151.5t310 51.5q135 0 248 -20t209 -60v-371h-187l-51 252l-35 33q-23 5 -50.5 7.5t-61.5 2.5q-201 0 -322 -151.5
t-121 -407.5q0 -251 121.5 -404t317.5 -153q34 0 62.5 2t53.5 6l33 31l53 266h187v-383zM824 0h124v-106h23q86 0 132 -42.5t46 -121.5q0 -99 -71 -156t-195 -57q-34 0 -75 5.5t-99 19.5v118q48 -9 83 -13.5t60 -4.5q47 0 74 17.5t27 47.5q0 28 -23 44t-63 16q-7 0 -16.5 -1
t-26.5 -3v237z" />
    <glyph glyph-name="Egrave" unicode="&#xc8;" horiz-adv-x="1337" 
d="M51 0v119l137 8l33 39v1051l-33 30l-137 8v119h1127v-342h-174l-33 182l-29 23h-364v-455h215l30 29l21 147h145v-503h-145l-21 147l-30 29h-215v-494h428l28 33l37 227h170v-397h-1190zM295 1892h305l201 -389h-176z" />
    <glyph glyph-name="Eacute" unicode="&#xc9;" horiz-adv-x="1337" 
d="M51 0v119l137 8l33 39v1051l-33 30l-137 8v119h1127v-342h-174l-33 182l-29 23h-364v-455h215l30 29l21 147h145v-503h-145l-21 147l-30 29h-215v-494h428l28 33l37 227h170v-397h-1190zM766 1892h305l-329 -389h-176z" />
    <glyph glyph-name="Ecircumflex" unicode="&#xca;" horiz-adv-x="1337" 
d="M51 0v119l137 8l33 39v1051l-33 30l-137 8v119h1127v-342h-174l-33 182l-29 23h-364v-455h215l30 29l21 147h145v-503h-145l-21 147l-30 29h-215v-494h428l28 33l37 227h170v-397h-1190zM555 1892h230l225 -389h-207l-133 223l-133 -223h-207z" />
    <glyph glyph-name="Edieresis" unicode="&#xcb;" horiz-adv-x="1337" 
d="M51 0v119l137 8l33 39v1051l-33 30l-137 8v119h1127v-342h-174l-33 182l-29 23h-364v-455h215l30 29l21 147h145v-503h-145l-21 147l-30 29h-215v-494h428l28 33l37 227h170v-397h-1190zM903 1853q64 0 110 -49t46 -117q0 -67 -46 -115.5t-110 -48.5q-66 0 -111.5 47.5
t-45.5 116.5t46.5 117.5t110.5 48.5zM437 1853q63 0 109 -49t46 -117q0 -67 -46 -115.5t-109 -48.5q-66 0 -111 47.5t-45 116.5t45.5 117.5t110.5 48.5z" />
    <glyph glyph-name="Igrave" unicode="&#xcc;" horiz-adv-x="840" 
d="M51 0v119l148 8l32 39v1051l-32 30l-148 8v119h731v-119l-151 -8l-33 -30v-1051l33 -39l151 -8v-119h-731zM46 1892h305l201 -389h-176z" />
    <glyph glyph-name="Iacute" unicode="&#xcd;" horiz-adv-x="840" 
d="M51 0v119l148 8l32 39v1051l-32 30l-148 8v119h731v-119l-151 -8l-33 -30v-1051l33 -39l151 -8v-119h-731zM517 1892h305l-329 -389h-176z" />
    <glyph glyph-name="Icircumflex" unicode="&#xce;" horiz-adv-x="840" 
d="M51 0v119l148 8l32 39v1051l-32 30l-148 8v119h731v-119l-151 -8l-33 -30v-1051l33 -39l151 -8v-119h-731zM306 1892h230l225 -389h-207l-133 223l-133 -223h-207z" />
    <glyph glyph-name="Idieresis" unicode="&#xcf;" horiz-adv-x="840" 
d="M51 0v119l148 8l32 39v1051l-32 30l-148 8v119h731v-119l-151 -8l-33 -30v-1051l33 -39l151 -8v-119h-731zM654 1853q64 0 110 -49t46 -117q0 -67 -46 -115.5t-110 -48.5q-66 0 -111.5 47.5t-45.5 116.5t46.5 117.5t110.5 48.5zM188 1853q63 0 109 -49t46 -117
q0 -67 -46 -115.5t-109 -48.5q-66 0 -111 47.5t-45 116.5t45.5 117.5t110.5 48.5z" />
    <glyph glyph-name="Eth" unicode="&#xd0;" horiz-adv-x="1597" 
d="M588 1237v-440h250v-152h-250v-508h84q219 0 326.5 136.5t107.5 414.5q0 277 -107.5 413t-326.5 136h-84zM51 1374h715q359 0 556.5 -179.5t197.5 -506.5q0 -330 -196 -509t-558 -179h-715v119l137 8l33 39v479h-188v152h188v411l-33 39l-137 8v119z" />
    <glyph glyph-name="Ntilde" unicode="&#xd1;" horiz-adv-x="1602" 
d="M47 0v115l125 12l39 39v1051l-27 30l-137 8v119h578v-55l587 -911v800l-36 39l-134 19v108h519v-108l-121 -19l-39 -39v-1208h-326l-678 1044v-878l29 -39l137 -12v-115h-516zM1012 1869h135v-28q0 -145 -46.5 -215t-143.5 -70q-75 0 -175 46t-124 46q-38 0 -57 -27.5
t-19 -80.5v-17h-137q0 8 -1 21.5t-1 19.5q0 135 48.5 203t145.5 68q70 0 170.5 -44.5t130.5 -44.5q38 0 56 25.5t18 79.5v18z" />
    <glyph glyph-name="Ograve" unicode="&#xd2;" horiz-adv-x="1669" 
d="M836 1249q-161 0 -255 -155.5t-94 -423.5q0 -251 98.5 -406t252.5 -155t248 158t94 425q0 254 -94.5 405.5t-249.5 151.5zM80 700q0 317 207.5 510t550.5 193q140 0 261.5 -37.5t213.5 -108.5q134 -103 205 -248t71 -315q0 -320 -214.5 -524.5t-553.5 -204.5
q-335 0 -538 202t-203 533zM461 1892h305l201 -389h-176z" />
    <glyph glyph-name="Oacute" unicode="&#xd3;" horiz-adv-x="1669" 
d="M836 1249q-161 0 -255 -155.5t-94 -423.5q0 -251 98.5 -406t252.5 -155t248 158t94 425q0 254 -94.5 405.5t-249.5 151.5zM80 700q0 317 207.5 510t550.5 193q140 0 261.5 -37.5t213.5 -108.5q134 -103 205 -248t71 -315q0 -320 -214.5 -524.5t-553.5 -204.5
q-335 0 -538 202t-203 533zM932 1892h305l-329 -389h-176z" />
    <glyph glyph-name="Ocircumflex" unicode="&#xd4;" horiz-adv-x="1669" 
d="M836 1249q-161 0 -255 -155.5t-94 -423.5q0 -251 98.5 -406t252.5 -155t248 158t94 425q0 254 -94.5 405.5t-249.5 151.5zM80 700q0 317 207.5 510t550.5 193q140 0 261.5 -37.5t213.5 -108.5q134 -103 205 -248t71 -315q0 -320 -214.5 -524.5t-553.5 -204.5
q-335 0 -538 202t-203 533zM721 1892h230l225 -389h-207l-133 223l-133 -223h-207z" />
    <glyph glyph-name="Otilde" unicode="&#xd5;" horiz-adv-x="1669" 
d="M836 1249q-161 0 -255 -155.5t-94 -423.5q0 -251 98.5 -406t252.5 -155t248 158t94 425q0 254 -94.5 405.5t-249.5 151.5zM80 700q0 317 207.5 510t550.5 193q140 0 261.5 -37.5t213.5 -108.5q134 -103 205 -248t71 -315q0 -320 -214.5 -524.5t-553.5 -204.5
q-335 0 -538 202t-203 533zM1047 1869h135v-28q0 -145 -46.5 -215t-143.5 -70q-75 0 -175 46t-124 46q-38 0 -57 -27.5t-19 -80.5v-17h-137q0 8 -1 21.5t-1 19.5q0 135 48.5 203t145.5 68q70 0 170.5 -44.5t130.5 -44.5q38 0 56 25.5t18 79.5v18z" />
    <glyph glyph-name="Odieresis" unicode="&#xd6;" horiz-adv-x="1669" 
d="M836 1249q-161 0 -255 -155.5t-94 -423.5q0 -251 98.5 -406t252.5 -155t248 158t94 425q0 254 -94.5 405.5t-249.5 151.5zM80 700q0 317 207.5 510t550.5 193q140 0 261.5 -37.5t213.5 -108.5q134 -103 205 -248t71 -315q0 -320 -214.5 -524.5t-553.5 -204.5
q-335 0 -538 202t-203 533zM1069 1853q64 0 110 -49t46 -117q0 -67 -46 -115.5t-110 -48.5q-66 0 -111.5 47.5t-45.5 116.5t46.5 117.5t110.5 48.5zM603 1853q63 0 109 -49t46 -117q0 -67 -46 -115.5t-109 -48.5q-66 0 -111 47.5t-45 116.5t45.5 117.5t110.5 48.5z" />
    <glyph glyph-name="multiply" unicode="&#xd7;" horiz-adv-x="1706" 
d="M862 729l461 459l117 -117l-459 -461l459 -458l-117 -119l-461 461l-459 -461l-116 119l458 458l-458 461l116 117z" />
    <glyph glyph-name="Oslash" unicode="&#xd8;" horiz-adv-x="1669" 
d="M1122 1059l-501 -854q47 -49 101 -72.5t118 -23.5q161 0 258.5 158t97.5 425q0 103 -18 194t-56 173zM1034 1171q-45 39 -94.5 58.5t-103.5 19.5q-168 0 -266.5 -157t-98.5 -428q0 -87 16.5 -170.5t49.5 -165.5zM1260 1550l114 -65l-112 -193q157 -101 242 -256t85 -342
q0 -324 -217 -526.5t-567 -202.5q-82 0 -156.5 14.5t-142.5 43.5l-117 -203l-110 76l110 186q-154 106 -231.5 261t-77.5 357q0 160 49 281.5t152 218.5q106 101 241.5 151t302.5 50q100 0 176.5 -12.5t137.5 -38.5z" />
    <glyph glyph-name="Ugrave" unicode="&#xd9;" horiz-adv-x="1550" 
d="M33 1374h692v-119l-133 -8l-25 -30v-691q0 -191 72 -272.5t238 -81.5q158 0 223 85.5t65 307.5v652l-24 30l-146 8v119h516v-119l-131 -8l-26 -30v-678q0 -302 -136 -435t-444 -133q-179 0 -303.5 53t-196.5 160q-38 58 -54.5 133t-16.5 242v658l-25 30l-145 8v119z
M401 1892h305l201 -389h-176z" />
    <glyph glyph-name="Uacute" unicode="&#xda;" horiz-adv-x="1550" 
d="M33 1374h692v-119l-133 -8l-25 -30v-691q0 -191 72 -272.5t238 -81.5q158 0 223 85.5t65 307.5v652l-24 30l-146 8v119h516v-119l-131 -8l-26 -30v-678q0 -302 -136 -435t-444 -133q-179 0 -303.5 53t-196.5 160q-38 58 -54.5 133t-16.5 242v658l-25 30l-145 8v119z
M872 1892h305l-329 -389h-176z" />
    <glyph glyph-name="Ucircumflex" unicode="&#xdb;" horiz-adv-x="1550" 
d="M33 1374h692v-119l-133 -8l-25 -30v-691q0 -191 72 -272.5t238 -81.5q158 0 223 85.5t65 307.5v652l-24 30l-146 8v119h516v-119l-131 -8l-26 -30v-678q0 -302 -136 -435t-444 -133q-179 0 -303.5 53t-196.5 160q-38 58 -54.5 133t-16.5 242v658l-25 30l-145 8v119z
M661 1892h230l225 -389h-207l-133 223l-133 -223h-207z" />
    <glyph glyph-name="Udieresis" unicode="&#xdc;" horiz-adv-x="1550" 
d="M33 1374h692v-119l-133 -8l-25 -30v-691q0 -191 72 -272.5t238 -81.5q158 0 223 85.5t65 307.5v652l-24 30l-146 8v119h516v-119l-131 -8l-26 -30v-678q0 -302 -136 -435t-444 -133q-179 0 -303.5 53t-196.5 160q-38 58 -54.5 133t-16.5 242v658l-25 30l-145 8v119z
M1009 1853q64 0 110 -49t46 -117q0 -67 -46 -115.5t-110 -48.5q-66 0 -111.5 47.5t-45.5 116.5t46.5 117.5t110.5 48.5zM543 1853q63 0 109 -49t46 -117q0 -67 -46 -115.5t-109 -48.5q-66 0 -111 47.5t-45 116.5t45.5 117.5t110.5 48.5z" />
    <glyph glyph-name="Yacute" unicode="&#xdd;" horiz-adv-x="1374" 
d="M-20 1374h663v-117l-119 -10l-18 -28l264 -482l256 463l-16 37l-123 23v114h491v-119l-125 -18l-370 -639v-438l32 -31l146 -10v-119h-717v119l139 10l33 31v362l-397 713l-139 20v119zM784 1892h305l-329 -389h-176z" />
    <glyph glyph-name="Thorn" unicode="&#xde;" horiz-adv-x="1337" 
d="M596 389h25q152 0 222 74t70 235q0 145 -68 218t-202 73q-19 0 -29 -0.5t-18 -1.5v-598zM61 1374h717v-119l-149 -8l-33 -39v-80h127q135 0 230.5 -17.5t154.5 -53.5q92 -57 141 -145t49 -195q0 -232 -147.5 -351.5t-433.5 -119.5q-48 0 -73 1t-48 3v-84l31 -39l151 -8
v-119h-717v119l132 8l38 39v1051l-26 30l-144 8v119z" />
    <glyph glyph-name="germandbls" unicode="&#xdf;" horiz-adv-x="1460" 
d="M1259 979q-24 2 -37 3t-24 1q-98 0 -151.5 -39.5t-53.5 -112.5q0 -75 142 -157q15 -8 23 -13q155 -88 208 -159t53 -170q0 -162 -123 -257t-333 -95q-82 0 -161 10.5t-157 32.5v317h148l16 -205q26 -10 49 -15t41 -5q86 0 137 38.5t51 102.5q0 99 -208 204l-58 29
q-80 42 -123 106t-43 142q0 98 60.5 165.5t171.5 94.5q12 70 17 112.5t5 68.5q0 91 -46 144.5t-124 53.5q-113 0 -170 -108t-57 -326v-942h-473v109l111 10l20 26v732q0 305 168.5 476t468.5 171q216 0 341.5 -108.5t125.5 -295.5q0 -29 -3.5 -65t-11.5 -76z" />
    <glyph glyph-name="agrave" unicode="&#xe0;" horiz-adv-x="1262" 
d="M752 215v307q-165 -21 -235.5 -68t-70.5 -135q0 -64 43 -103.5t113 -39.5q32 0 69 10t81 29zM752 115q-110 -71 -202.5 -106.5t-170.5 -35.5q-132 0 -215.5 79t-83.5 204q0 94 52.5 169t139.5 107q70 26 193.5 58t290.5 67v60q0 99 -58 150t-170 51h-32v-213h-244
q-68 0 -95.5 19t-27.5 64q0 101 152 176.5t376 75.5q136 0 232 -35t149 -104q32 -41 46 -95.5t14 -176.5v-23v-465l22 -24l113 -13v-104h-453zM256 1532h305l201 -389h-176z" />
    <glyph glyph-name="aacute" unicode="&#xe1;" horiz-adv-x="1262" 
d="M752 215v307q-165 -21 -235.5 -68t-70.5 -135q0 -64 43 -103.5t113 -39.5q32 0 69 10t81 29zM752 115q-110 -71 -202.5 -106.5t-170.5 -35.5q-132 0 -215.5 79t-83.5 204q0 94 52.5 169t139.5 107q70 26 193.5 58t290.5 67v60q0 99 -58 150t-170 51h-32v-213h-244
q-68 0 -95.5 19t-27.5 64q0 101 152 176.5t376 75.5q136 0 232 -35t149 -104q32 -41 46 -95.5t14 -176.5v-23v-465l22 -24l113 -13v-104h-453zM727 1532h305l-329 -389h-176z" />
    <glyph glyph-name="acircumflex" unicode="&#xe2;" horiz-adv-x="1262" 
d="M752 215v307q-165 -21 -235.5 -68t-70.5 -135q0 -64 43 -103.5t113 -39.5q32 0 69 10t81 29zM752 115q-110 -71 -202.5 -106.5t-170.5 -35.5q-132 0 -215.5 79t-83.5 204q0 94 52.5 169t139.5 107q70 26 193.5 58t290.5 67v60q0 99 -58 150t-170 51h-32v-213h-244
q-68 0 -95.5 19t-27.5 64q0 101 152 176.5t376 75.5q136 0 232 -35t149 -104q32 -41 46 -95.5t14 -176.5v-23v-465l22 -24l113 -13v-104h-453zM516 1532h230l225 -389h-207l-133 223l-133 -223h-207z" />
    <glyph glyph-name="atilde" unicode="&#xe3;" horiz-adv-x="1262" 
d="M752 215v307q-165 -21 -235.5 -68t-70.5 -135q0 -64 43 -103.5t113 -39.5q32 0 69 10t81 29zM752 115q-110 -71 -202.5 -106.5t-170.5 -35.5q-132 0 -215.5 79t-83.5 204q0 94 52.5 169t139.5 107q70 26 193.5 58t290.5 67v60q0 99 -58 150t-170 51h-32v-213h-244
q-68 0 -95.5 19t-27.5 64q0 101 152 176.5t376 75.5q136 0 232 -35t149 -104q32 -41 46 -95.5t14 -176.5v-23v-465l22 -24l113 -13v-104h-453zM842 1509h135v-28q0 -145 -46.5 -215t-143.5 -70q-75 0 -175 46t-124 46q-38 0 -57 -27.5t-19 -80.5v-17h-137q0 8 -1 21.5
t-1 19.5q0 135 48.5 203t145.5 68q70 0 170.5 -44.5t130.5 -44.5q38 0 56 25.5t18 79.5v18z" />
    <glyph glyph-name="adieresis" unicode="&#xe4;" horiz-adv-x="1262" 
d="M752 215v307q-165 -21 -235.5 -68t-70.5 -135q0 -64 43 -103.5t113 -39.5q32 0 69 10t81 29zM752 115q-110 -71 -202.5 -106.5t-170.5 -35.5q-132 0 -215.5 79t-83.5 204q0 94 52.5 169t139.5 107q70 26 193.5 58t290.5 67v60q0 99 -58 150t-170 51h-32v-213h-244
q-68 0 -95.5 19t-27.5 64q0 101 152 176.5t376 75.5q136 0 232 -35t149 -104q32 -41 46 -95.5t14 -176.5v-23v-465l22 -24l113 -13v-104h-453zM864 1493q64 0 110 -49t46 -117q0 -67 -46 -115.5t-110 -48.5q-66 0 -111.5 47.5t-45.5 116.5t46.5 117.5t110.5 48.5zM398 1493
q63 0 109 -49t46 -117q0 -67 -46 -115.5t-109 -48.5q-66 0 -111 47.5t-45 116.5t45.5 117.5t110.5 48.5z" />
    <glyph glyph-name="aring" unicode="&#xe5;" horiz-adv-x="1262" 
d="M752 522q-165 -21 -235.5 -68t-70.5 -135q0 -64 43 -103.5t113 -39.5q32 0 69 10t81 29v307zM1098 606v-465l22 -24l113 -13v-104h-453l-28 115q-110 -71 -202.5 -106.5t-170.5 -35.5q-132 0 -215.5 79t-83.5 204q0 94 52.5 169t139.5 107q70 26 193.5 58t290.5 67v60
q0 99 -58 150t-170 51h-32v-213h-244q-68 0 -95.5 19t-27.5 64q0 101 152 176.5t376 75.5q136 0 232 -35t149 -104q32 -41 46 -95.5t14 -176.5v-23zM639 1485q-50 0 -85.5 -35.5t-35.5 -85.5t36 -86.5t85 -36.5q52 0 88.5 36t36.5 87t-36.5 86t-88.5 35zM641 1608
q103 0 174.5 -71t71.5 -173q0 -103 -71.5 -174.5t-174.5 -71.5t-174.5 71.5t-71.5 174.5q0 102 71.5 173t174.5 71z" />
    <glyph glyph-name="ae" unicode="&#xe6;" horiz-adv-x="1749" 
d="M1030 637h299v22q0 121 -34.5 180.5t-104.5 59.5q-84 0 -122 -59t-38 -191v-12zM709 215v307q-161 -34 -215 -76.5t-54 -123.5q0 -67 37.5 -106.5t100.5 -39.5q29 0 62 10t69 29zM467 705h-225q-63 0 -90 19.5t-27 63.5q0 100 137.5 176t333.5 76q107 0 194 -27t152 -81
q77 55 153 81.5t152 26.5q198 0 314 -132.5t116 -362.5v-39h-641v-209q69 -57 150 -86t170 -29q73 0 150 26t165 81v-189q-100 -59 -207 -87.5t-227 -28.5q-126 0 -231.5 35t-212.5 112q-111 -78 -217.5 -118t-202.5 -40q-136 0 -214.5 78.5t-78.5 212.5q0 146 122.5 228.5
t506.5 164.5v60q0 99 -54 150t-159 51h-29v-213z" />
    <glyph glyph-name="ccedilla" unicode="&#xe7;" horiz-adv-x="1100" 
d="M1069 98q-129 -60 -237 -87t-214 -27q-251 0 -399.5 140.5t-148.5 375.5q0 241 165 389.5t433 148.5q175 0 284 -72.5t109 -187.5q0 -74 -52.5 -121t-136.5 -47q-43 0 -82.5 12t-80.5 37v271q-126 -13 -195.5 -115.5t-69.5 -275.5q0 -163 85 -264t221 -101
q56 0 128.5 23.5t190.5 83.5v-183zM562 0h124v-106h23q86 0 132 -42.5t46 -121.5q0 -99 -71 -156t-195 -57q-34 0 -75 5.5t-99 19.5v118q48 -9 83 -13.5t60 -4.5q47 0 74 17.5t27 47.5q0 28 -23 44t-63 16q-7 0 -16.5 -1t-26.5 -3v237z" />
    <glyph glyph-name="egrave" unicode="&#xe8;" horiz-adv-x="1208" 
d="M776 635q0 142 -38 209t-117 67q-89 0 -134 -67.5t-45 -200.5v-8h334zM1135 289v-189q-117 -59 -240 -87.5t-260 -28.5q-256 0 -406.5 142.5t-150.5 383.5t155 387.5t410 146.5q237 0 367.5 -134t130.5 -378v-26h-706q3 -152 83.5 -240t214.5 -88q104 0 203 27.5
t199 83.5zM229 1532h305l201 -389h-176z" />
    <glyph glyph-name="eacute" unicode="&#xe9;" horiz-adv-x="1208" 
d="M776 635q0 142 -38 209t-117 67q-89 0 -134 -67.5t-45 -200.5v-8h334zM1135 289v-189q-117 -59 -240 -87.5t-260 -28.5q-256 0 -406.5 142.5t-150.5 383.5t155 387.5t410 146.5q237 0 367.5 -134t130.5 -378v-26h-706q3 -152 83.5 -240t214.5 -88q104 0 203 27.5
t199 83.5zM700 1532h305l-329 -389h-176z" />
    <glyph glyph-name="ecircumflex" unicode="&#xea;" horiz-adv-x="1208" 
d="M776 635q0 142 -38 209t-117 67q-89 0 -134 -67.5t-45 -200.5v-8h334zM1135 289v-189q-117 -59 -240 -87.5t-260 -28.5q-256 0 -406.5 142.5t-150.5 383.5t155 387.5t410 146.5q237 0 367.5 -134t130.5 -378v-26h-706q3 -152 83.5 -240t214.5 -88q104 0 203 27.5
t199 83.5zM489 1532h230l225 -389h-207l-133 223l-133 -223h-207z" />
    <glyph glyph-name="edieresis" unicode="&#xeb;" horiz-adv-x="1208" 
d="M776 635q0 142 -38 209t-117 67q-89 0 -134 -67.5t-45 -200.5v-8h334zM1135 289v-189q-117 -59 -240 -87.5t-260 -28.5q-256 0 -406.5 142.5t-150.5 383.5t155 387.5t410 146.5q237 0 367.5 -134t130.5 -378v-26h-706q3 -152 83.5 -240t214.5 -88q104 0 203 27.5
t199 83.5zM837 1493q64 0 110 -49t46 -117q0 -67 -46 -115.5t-110 -48.5q-66 0 -111.5 47.5t-45.5 116.5t46.5 117.5t110.5 48.5zM371 1493q63 0 109 -49t46 -117q0 -67 -46 -115.5t-109 -48.5q-66 0 -111 47.5t-45 116.5t45.5 117.5t110.5 48.5z" />
    <glyph glyph-name="igrave" unicode="&#xec;" horiz-adv-x="725" 
d="M418 1038h119v-893l26 -26l125 -10v-109h-637v109l121 10l23 26v674h-132v101zM-12 1532h305l201 -389h-176z" />
    <glyph glyph-name="iacute" unicode="&#xed;" horiz-adv-x="725" 
d="M418 1038h119v-893l26 -26l125 -10v-109h-637v109l121 10l23 26v674h-132v101zM459 1532h305l-329 -389h-176z" />
    <glyph glyph-name="icircumflex" unicode="&#xee;" horiz-adv-x="725" 
d="M418 1038h119v-893l26 -26l125 -10v-109h-637v109l121 10l23 26v674h-132v101zM248 1532h230l225 -389h-207l-133 223l-133 -223h-207z" />
    <glyph glyph-name="idieresis" unicode="&#xef;" horiz-adv-x="725" 
d="M418 1038h119v-893l26 -26l125 -10v-109h-637v109l121 10l23 26v674h-132v101zM596 1493q64 0 110 -49t46 -117q0 -67 -46 -115.5t-110 -48.5q-66 0 -111.5 47.5t-45.5 116.5t46.5 117.5t110.5 48.5zM130 1493q63 0 109 -49t46 -117q0 -67 -46 -115.5t-109 -48.5
q-66 0 -111 47.5t-45 116.5t45.5 117.5t110.5 48.5z" />
    <glyph glyph-name="eth" unicode="&#xf0;" horiz-adv-x="1321" 
d="M813 854q-30 11 -59.5 17t-57.5 6q-115 0 -178 -98.5t-63 -278.5q0 -198 51 -290.5t160 -92.5q108 0 157 99.5t49 322.5q0 100 -14.5 177.5t-44.5 137.5zM748 987q-32 53 -65 97t-67 81l-241 -135l-56 96l222 119l-64 64h-174l-10 88l334 129h71l136 -137l221 116l61 -92
l-209 -119q172 -196 255 -381.5t83 -369.5q0 -269 -151 -414t-430 -145q-276 0 -432 136t-156 376q0 226 143 362.5t381 136.5q36 0 72.5 -2t75.5 -6z" />
    <glyph glyph-name="ntilde" unicode="&#xf1;" horiz-adv-x="1389" 
d="M66 0v109l106 10l23 26v674h-144v101l367 118h119v-133q144 75 231 104t154 29q153 0 225 -89.5t72 -282.5v-521l22 -26l111 -10v-109h-574v109l80 10l25 26v437q0 133 -48.5 184t-168.5 51q-54 0 -80.5 -1.5t-48.5 -4.5v-666l26 -26l86 -10v-109h-583zM905 1509h135v-28
q0 -145 -46.5 -215t-143.5 -70q-75 0 -175 46t-124 46q-38 0 -57 -27.5t-19 -80.5v-17h-137q0 8 -1 21.5t-1 19.5q0 135 48.5 203t145.5 68q70 0 170.5 -44.5t130.5 -44.5q38 0 56 25.5t18 79.5v18z" />
    <glyph glyph-name="ograve" unicode="&#xf2;" horiz-adv-x="1331" 
d="M670 911q-106 0 -157.5 -98t-51.5 -301q0 -205 51 -302t158 -97q105 0 154.5 93.5t49.5 293.5q0 213 -49 312t-155 99zM682 1038q269 0 422 -140.5t153 -385.5q0 -250 -154.5 -388t-436.5 -138q-281 0 -434.5 137.5t-153.5 388.5q0 249 159 387.5t445 138.5zM291 1532
h305l201 -389h-176z" />
    <glyph glyph-name="oacute" unicode="&#xf3;" horiz-adv-x="1331" 
d="M670 911q-106 0 -157.5 -98t-51.5 -301q0 -205 51 -302t158 -97q105 0 154.5 93.5t49.5 293.5q0 213 -49 312t-155 99zM682 1038q269 0 422 -140.5t153 -385.5q0 -250 -154.5 -388t-436.5 -138q-281 0 -434.5 137.5t-153.5 388.5q0 249 159 387.5t445 138.5zM762 1532
h305l-329 -389h-176z" />
    <glyph glyph-name="ocircumflex" unicode="&#xf4;" horiz-adv-x="1331" 
d="M670 911q-106 0 -157.5 -98t-51.5 -301q0 -205 51 -302t158 -97q105 0 154.5 93.5t49.5 293.5q0 213 -49 312t-155 99zM682 1038q269 0 422 -140.5t153 -385.5q0 -250 -154.5 -388t-436.5 -138q-281 0 -434.5 137.5t-153.5 388.5q0 249 159 387.5t445 138.5zM551 1532
h230l225 -389h-207l-133 223l-133 -223h-207z" />
    <glyph glyph-name="otilde" unicode="&#xf5;" horiz-adv-x="1331" 
d="M670 911q-106 0 -157.5 -98t-51.5 -301q0 -205 51 -302t158 -97q105 0 154.5 93.5t49.5 293.5q0 213 -49 312t-155 99zM682 1038q269 0 422 -140.5t153 -385.5q0 -250 -154.5 -388t-436.5 -138q-281 0 -434.5 137.5t-153.5 388.5q0 249 159 387.5t445 138.5zM877 1509
h135v-28q0 -145 -46.5 -215t-143.5 -70q-75 0 -175 46t-124 46q-38 0 -57 -27.5t-19 -80.5v-17h-137q0 8 -1 21.5t-1 19.5q0 135 48.5 203t145.5 68q70 0 170.5 -44.5t130.5 -44.5q38 0 56 25.5t18 79.5v18z" />
    <glyph glyph-name="odieresis" unicode="&#xf6;" horiz-adv-x="1331" 
d="M670 911q-106 0 -157.5 -98t-51.5 -301q0 -205 51 -302t158 -97q105 0 154.5 93.5t49.5 293.5q0 213 -49 312t-155 99zM682 1038q269 0 422 -140.5t153 -385.5q0 -250 -154.5 -388t-436.5 -138q-281 0 -434.5 137.5t-153.5 388.5q0 249 159 387.5t445 138.5zM899 1493
q64 0 110 -49t46 -117q0 -67 -46 -115.5t-110 -48.5q-66 0 -111.5 47.5t-45.5 116.5t46.5 117.5t110.5 48.5zM433 1493q63 0 109 -49t46 -117q0 -67 -46 -115.5t-109 -48.5q-66 0 -111 47.5t-45 116.5t45.5 117.5t110.5 48.5z" />
    <glyph glyph-name="divide" unicode="&#xf7;" horiz-adv-x="1706" 
d="M854 367q57 0 97 -40.5t40 -97.5q0 -56 -39.5 -95.5t-97.5 -39.5t-97.5 39t-39.5 96t40.5 97.5t96.5 40.5zM1452 694v-166h-1198v166h1198zM854 1128q57 0 97 -41t40 -98q0 -56 -39.5 -95.5t-97.5 -39.5t-97.5 39t-39.5 96t40.5 98t96.5 41z" />
    <glyph glyph-name="oslash" unicode="&#xf8;" horiz-adv-x="1331" 
d="M854 764l-332 -586q31 -33 66 -49t78 -16q118 0 170.5 95.5t52.5 313.5q0 71 -8.5 131t-26.5 111zM782 870q-20 21 -48 30t-68 9q-114 0 -169 -97t-55 -300q0 -50 5 -101.5t14 -104.5zM967 1190l102 -55l-88 -156q134 -61 205 -181t71 -286q0 -251 -155 -388.5
t-438 -137.5q-72 0 -130 6.5t-106 19.5l-106 -186l-103 68l100 163q-120 78 -180.5 192t-60.5 263q0 250 158 388t446 138q60 0 104 -4.5t80 -13.5z" />
    <glyph glyph-name="ugrave" unicode="&#xf9;" horiz-adv-x="1366" 
d="M391 1038h123v-594q0 -146 44 -194.5t167 -48.5q26 0 56 1.5t60 4.5l1 612h-129v101l356 118h115v-891l20 -28l121 -8v-111h-483v113q-121 -72 -210.5 -101.5t-180.5 -29.5q-78 0 -139.5 33t-98.5 94q-24 40 -34.5 89.5t-10.5 149.5v25v446h-127v101zM309 1532h305
l201 -389h-176z" />
    <glyph glyph-name="uacute" unicode="&#xfa;" horiz-adv-x="1366" 
d="M391 1038h123v-594q0 -146 44 -194.5t167 -48.5q26 0 56 1.5t60 4.5l1 612h-129v101l356 118h115v-891l20 -28l121 -8v-111h-483v113q-121 -72 -210.5 -101.5t-180.5 -29.5q-78 0 -139.5 33t-98.5 94q-24 40 -34.5 89.5t-10.5 149.5v25v446h-127v101zM780 1532h305
l-329 -389h-176z" />
    <glyph glyph-name="ucircumflex" unicode="&#xfb;" horiz-adv-x="1366" 
d="M391 1038h123v-594q0 -146 44 -194.5t167 -48.5q26 0 56 1.5t60 4.5l1 612h-129v101l356 118h115v-891l20 -28l121 -8v-111h-483v113q-121 -72 -210.5 -101.5t-180.5 -29.5q-78 0 -139.5 33t-98.5 94q-24 40 -34.5 89.5t-10.5 149.5v25v446h-127v101zM569 1532h230
l225 -389h-207l-133 223l-133 -223h-207z" />
    <glyph glyph-name="udieresis" unicode="&#xfc;" horiz-adv-x="1366" 
d="M391 1038h123v-594q0 -146 44 -194.5t167 -48.5q26 0 56 1.5t60 4.5l1 612h-129v101l356 118h115v-891l20 -28l121 -8v-111h-483v113q-121 -72 -210.5 -101.5t-180.5 -29.5q-78 0 -139.5 33t-98.5 94q-24 40 -34.5 89.5t-10.5 149.5v25v446h-127v101zM917 1493
q64 0 110 -49t46 -117q0 -67 -46 -115.5t-110 -48.5q-66 0 -111.5 47.5t-45.5 116.5t46.5 117.5t110.5 48.5zM451 1493q63 0 109 -49t46 -117q0 -67 -46 -115.5t-109 -48.5q-66 0 -111 47.5t-45 116.5t45.5 117.5t110.5 48.5z" />
    <glyph glyph-name="yacute" unicode="&#xfd;" horiz-adv-x="1161" 
d="M-16 1006h614v-101l-104 -14l-19 -25l211 -530l203 528l-21 27l-110 14v101h436v-101l-113 -20l-397 -928q-80 -187 -208.5 -300.5t-258.5 -113.5q-85 0 -145 57t-60 136q0 64 44.5 112.5t121.5 67.5l174 -166q46 28 85.5 75t76.5 118l-405 938l-125 24v101zM678 1532
h305l-329 -389h-176z" />
    <glyph glyph-name="thorn" unicode="&#xfe;" horiz-adv-x="1366" 
d="M525 127q12 -1 26 -1.5t33 -0.5q158 0 236.5 96.5t78.5 290.5q0 151 -68 229t-198 78q-18 0 -42 -2t-67 -8zM47 -451v117l117 8l22 31v1595h-143v101l379 121h102v-621q130 80 209.5 110.5t149.5 30.5q170 0 284.5 -141t114.5 -358q0 -244 -162.5 -393.5t-431.5 -149.5
q-27 0 -64.5 2.5t-99.5 7.5v-315l27 -25l131 -8v-113h-635z" />
    <glyph glyph-name="ydieresis" unicode="&#xff;" horiz-adv-x="1161" 
d="M-16 1006h614v-101l-104 -14l-19 -25l211 -530l203 528l-21 27l-110 14v101h436v-101l-113 -20l-397 -928q-80 -187 -208.5 -300.5t-258.5 -113.5q-85 0 -145 57t-60 136q0 64 44.5 112.5t121.5 67.5l174 -166q46 28 85.5 75t76.5 118l-405 938l-125 24v101zM815 1493
q64 0 110 -49t46 -117q0 -67 -46 -115.5t-110 -48.5q-66 0 -111.5 47.5t-45.5 116.5t46.5 117.5t110.5 48.5zM349 1493q63 0 109 -49t46 -117q0 -67 -46 -115.5t-109 -48.5q-66 0 -111 47.5t-45 116.5t45.5 117.5t110.5 48.5z" />
    <glyph glyph-name="Cacute" unicode="&#x106;" horiz-adv-x="1399" 
d="M1309 49q-111 -39 -228.5 -58.5t-242.5 -19.5q-118 0 -225 27t-191 78q-161 96 -250.5 257.5t-89.5 354.5q0 146 56 276.5t161 231.5q103 100 243 151.5t310 51.5q135 0 248 -20t209 -60v-371h-187l-51 252l-35 33q-23 5 -50.5 7.5t-61.5 2.5q-201 0 -322 -151.5
t-121 -407.5q0 -251 121.5 -404t317.5 -153q34 0 62.5 2t53.5 6l33 31l53 266h187v-383zM907 1892h305l-329 -389h-176z" />
    <glyph glyph-name="cacute" unicode="&#x107;" horiz-adv-x="1100" 
d="M1069 98q-129 -60 -237 -87t-214 -27q-251 0 -399.5 140.5t-148.5 375.5q0 241 165 389.5t433 148.5q175 0 284 -72.5t109 -187.5q0 -74 -52.5 -121t-136.5 -47q-43 0 -82.5 12t-80.5 37v271q-126 -13 -195.5 -115.5t-69.5 -275.5q0 -163 85 -264t221 -101
q56 0 128.5 23.5t190.5 83.5v-183zM647 1532h305l-329 -389h-176z" />
    <glyph glyph-name="Ccaron" unicode="&#x10c;" horiz-adv-x="1399" 
d="M1309 49q-111 -39 -228.5 -58.5t-242.5 -19.5q-118 0 -225 27t-191 78q-161 96 -250.5 257.5t-89.5 354.5q0 146 56 276.5t161 231.5q103 100 243 151.5t310 51.5q135 0 248 -20t209 -60v-371h-187l-51 252l-35 33q-23 5 -50.5 7.5t-61.5 2.5q-201 0 -322 -151.5
t-121 -407.5q0 -251 121.5 -404t317.5 -153q34 0 62.5 2t53.5 6l33 31l53 266h187v-383zM471 1890h207l133 -223l133 223h207l-225 -389h-230z" />
    <glyph glyph-name="ccaron" unicode="&#x10d;" horiz-adv-x="1100" 
d="M1069 98q-129 -60 -237 -87t-214 -27q-251 0 -399.5 140.5t-148.5 375.5q0 241 165 389.5t433 148.5q175 0 284 -72.5t109 -187.5q0 -74 -52.5 -121t-136.5 -47q-43 0 -82.5 12t-80.5 37v271q-126 -13 -195.5 -115.5t-69.5 -275.5q0 -163 85 -264t221 -101
q56 0 128.5 23.5t190.5 83.5v-183zM211 1530h207l133 -223l133 223h207l-225 -389h-230z" />
    <glyph glyph-name="dcroat" unicode="&#x111;" horiz-adv-x="1360" 
d="M844 872q-39 16 -72.5 23.5t-62.5 7.5q-120 0 -186 -97t-66 -274q0 -168 68.5 -251.5t205.5 -83.5q19 0 48.5 2.5t64.5 7.5v665zM1081 1526h99v-279h133v-117h-133v-983l26 -34l117 -9v-104h-479v124l-8 -4q-220 -136 -344 -136q-185 0 -299.5 142t-114.5 370
q0 241 152.5 393.5t390.5 152.5q43 0 97.5 -5.5t125.5 -16.5v110h-287v117h287v70h-152v84z" />
    <glyph glyph-name="Gbreve" unicode="&#x11e;" horiz-adv-x="1569" 
d="M813 692h707v-117l-129 -10l-33 -28v-467q-122 -48 -249.5 -71.5t-262.5 -23.5q-344 0 -555 197t-211 516q0 321 215 514t571 193q115 0 237 -18.5t255 -55.5v-373h-187l-47 248l-37 33q-44 10 -70 14t-48 4q-236 0 -369 -150t-133 -415q0 -253 138.5 -405t369.5 -152h33
v412l-35 28l-160 10v117zM452 1855l127 -4v-6q0 -91 45 -126.5t162 -35.5q115 0 161 35t46 121v12l125 4v-29q0 -163 -76.5 -234t-255.5 -71q-180 0 -257 70.5t-77 234.5v29z" />
    <glyph glyph-name="gbreve" unicode="&#x11f;" horiz-adv-x="1255" 
d="M401 16q-10 -29 -15 -57.5t-5 -56.5q0 -93 70.5 -157t173.5 -64q91 0 147.5 46t56.5 119q0 106 -246 143q-15 2 -22 3zM743 711q0 94 -38.5 150.5t-102.5 56.5q-65 0 -105 -61.5t-40 -162.5q0 -115 38.5 -180t104.5 -65q68 0 105.5 68.5t37.5 193.5zM944 967h324v-136
h-226q21 -31 31 -66.5t10 -78.5q0 -161 -132 -250.5t-373 -89.5q-17 0 -38.5 1.5t-47.5 4.5q-5 -12 -7 -27t-2 -34q0 -18 2 -33t7 -29l88 -8q369 -42 478 -104t109 -191q0 -155 -177.5 -262.5t-446.5 -107.5q-237 0 -364.5 74t-127.5 210q0 96 60 153.5t159 57.5
q-18 35 -27.5 64.5t-9.5 56.5q0 53 31 97.5t101 90.5q-137 45 -202 121.5t-65 192.5q0 170 131.5 265t368.5 95q69 0 149.5 -15.5t196.5 -51.5zM297 1495l127 -4v-6q0 -91 45 -126.5t162 -35.5q115 0 161 35t46 121v12l125 4v-29q0 -163 -76.5 -234t-255.5 -71
q-180 0 -257 70.5t-77 234.5v29z" />
    <glyph glyph-name="Idotaccent" unicode="&#x130;" horiz-adv-x="840" 
d="M51 0v119l148 8l32 39v1051l-32 30l-148 8v119h731v-119l-151 -8l-33 -30v-1051l33 -39l151 -8v-119h-731zM421 1853q64 0 110 -49t46 -117q0 -67 -46 -115.5t-110 -48.5q-66 0 -111 47.5t-45 116.5t45.5 117.5t110.5 48.5z" />
    <glyph glyph-name="dotlessi" unicode="&#x131;" horiz-adv-x="725" 
d="M418 1038h119v-893l26 -26l125 -10v-109h-637v109l121 10l23 26v674h-132v101z" />
    <glyph glyph-name="Lslash" unicode="&#x141;" horiz-adv-x="1229" 
d="M59 1374h699v-119l-137 -8l-35 -30v-302l215 142l76 -107l-291 -186v-623h348l24 35l29 256h203v-432h-1131v119l123 8l39 39v375l-145 -101l-60 109l205 141v527l-26 30l-136 8v119z" />
    <glyph glyph-name="lslash" unicode="&#x142;" horiz-adv-x="717" 
d="M422 1522h104v-578l158 109l72 -105l-230 -157v-639l29 -33l125 -15v-104h-641v104l119 17l26 24v422l-139 -98l-65 104l204 140v587h-141v101z" />
    <glyph glyph-name="OE" unicode="&#x152;" horiz-adv-x="2214" 
d="M1126 1235v139h928v-342h-166l-26 160l-43 45h-359v-455h217l31 31l14 145h144v-503h-144l-16 143l-35 41h-211v-502h422l29 33l37 227h172v-397h-992v154q-88 -96 -190 -140.5t-236 -44.5q-133 0 -250 52t-200 149t-128.5 232.5t-45.5 287.5q0 320 181.5 515.5
t477.5 195.5q131 0 226.5 -41t162.5 -125zM807 1239q-152 0 -241 -150.5t-89 -412.5q0 -242 93 -392.5t239 -150.5t235 153.5t89 413.5q0 247 -89.5 393t-236.5 146z" />
    <glyph glyph-name="oe" unicode="&#x153;" horiz-adv-x="1948" 
d="M1870 506h-686q1 -150 79 -238t210 -88q103 0 199.5 27t191.5 82v-189q-110 -58 -230 -86t-256 -28q-106 0 -193.5 30.5t-158.5 92.5q-75 -64 -172 -93.5t-233 -29.5q-251 0 -396 141t-145 385q0 245 151 385.5t414 140.5q124 0 223 -32t166 -95q72 63 165.5 95t205.5 32
q219 0 342 -133.5t123 -372.5v-26zM1509 635v12q0 135 -35.5 198.5t-111.5 63.5q-84 0 -127 -67t-43 -199v-8h317zM643 909q-101 0 -150 -98t-49 -299q0 -204 49 -301.5t150 -97.5q100 0 147.5 93.5t47.5 291.5q0 215 -46.5 313t-148.5 98z" />
    <glyph glyph-name="Scedilla" unicode="&#x15e;" horiz-adv-x="1262" 
d="M121 49v379h190l47 -252l29 -31q39 -6 77.5 -9t78.5 -3q118 0 188 51.5t70 137.5q0 28 -9.5 53.5t-27.5 46.5q-48 53 -203 113q-76 28 -117 47q-159 71 -233 164.5t-74 224.5q0 194 145 312t388 118q102 0 213 -21t225 -61v-346h-190l-41 227l-25 25q-28 9 -58.5 13.5
t-64.5 4.5q-116 0 -182 -49t-66 -133q0 -115 253 -221q29 -12 44 -19q226 -95 299.5 -181.5t73.5 -223.5q0 -201 -158 -321t-426 -120q-90 0 -197.5 18t-248.5 56zM570 0h124v-106h23q86 0 132 -42.5t46 -121.5q0 -99 -71 -156t-195 -57q-34 0 -75 5.5t-99 19.5v118
q48 -9 83 -13.5t60 -4.5q47 0 74 17.5t27 47.5q0 28 -23 44t-63 16q-7 0 -16.5 -1t-26.5 -3v237z" />
    <glyph glyph-name="scedilla" unicode="&#x15f;" horiz-adv-x="1071" 
d="M946 987v-313h-147l-27 162l-27 28q-41 19 -78 28t-71 9q-72 0 -114 -29.5t-42 -78.5q0 -87 184 -155q60 -22 93 -36q161 -66 219.5 -130t58.5 -163q0 -142 -134.5 -239t-338.5 -97q-97 0 -206.5 15t-229.5 45v342h147l25 -187l23 -26q54 -26 107.5 -38.5t107.5 -12.5
q70 0 111.5 32t41.5 86q0 78 -144 139l-48 21q-223 98 -291 166.5t-68 165.5q0 143 125.5 232t331.5 89q78 0 174.5 -13.5t216.5 -41.5zM476 0h124v-106h23q86 0 132 -42.5t46 -121.5q0 -99 -71 -156t-195 -57q-34 0 -75 5.5t-99 19.5v118q48 -9 83 -13.5t60 -4.5
q47 0 74 17.5t27 47.5q0 28 -23 44t-63 16q-7 0 -16.5 -1t-26.5 -3v237z" />
    <glyph glyph-name="Scaron" unicode="&#x160;" horiz-adv-x="1262" 
d="M121 49v379h190l47 -252l29 -31q39 -6 77.5 -9t78.5 -3q118 0 188 51.5t70 137.5q0 28 -9.5 53.5t-27.5 46.5q-48 53 -203 113q-76 28 -117 47q-159 71 -233 164.5t-74 224.5q0 194 145 312t388 118q102 0 213 -21t225 -61v-346h-190l-41 227l-25 25q-28 9 -58.5 13.5
t-64.5 4.5q-116 0 -182 -49t-66 -133q0 -115 253 -221q29 -12 44 -19q226 -95 299.5 -181.5t73.5 -223.5q0 -201 -158 -321t-426 -120q-90 0 -197.5 18t-248.5 56zM291 1890h207l133 -223l133 223h207l-225 -389h-230z" />
    <glyph glyph-name="scaron" unicode="&#x161;" horiz-adv-x="1071" 
d="M946 987v-313h-147l-27 162l-27 28q-41 19 -78 28t-71 9q-72 0 -114 -29.5t-42 -78.5q0 -87 184 -155q60 -22 93 -36q161 -66 219.5 -130t58.5 -163q0 -142 -134.5 -239t-338.5 -97q-97 0 -206.5 15t-229.5 45v342h147l25 -187l23 -26q54 -26 107.5 -38.5t107.5 -12.5
q70 0 111.5 32t41.5 86q0 78 -144 139l-48 21q-223 98 -291 166.5t-68 165.5q0 143 125.5 232t331.5 89q78 0 174.5 -13.5t216.5 -41.5zM197 1530h207l133 -223l133 223h207l-225 -389h-230z" />
    <glyph glyph-name="Ydieresis" unicode="&#x178;" horiz-adv-x="1374" 
d="M-20 1374h663v-117l-119 -10l-18 -28l264 -482l256 463l-16 37l-123 23v114h491v-119l-125 -18l-370 -639v-438l32 -31l146 -10v-119h-717v119l139 10l33 31v362l-397 713l-139 20v119zM921 1853q64 0 110 -49t46 -117q0 -67 -46 -115.5t-110 -48.5q-66 0 -111.5 47.5
t-45.5 116.5t46.5 117.5t110.5 48.5zM455 1853q63 0 109 -49t46 -117q0 -67 -46 -115.5t-109 -48.5q-66 0 -111 47.5t-45 116.5t45.5 117.5t110.5 48.5z" />
    <glyph glyph-name="Zcaron" unicode="&#x17d;" horiz-adv-x="1298" 
d="M121 1374h1059v-141l-691 -1092h457l25 29l35 256h188v-426h-1104v141l690 1096h-405l-39 -27l-35 -243h-180v407zM309 1890h207l133 -223l133 223h207l-225 -389h-230z" />
    <glyph glyph-name="zcaron" unicode="&#x17e;" horiz-adv-x="1139" 
d="M100 0v154l535 725h-305l-25 -29l-22 -178h-170v334h915v-136l-543 -737h340l35 35l23 203h180v-371h-963zM229 1530h207l133 -223l133 223h207l-225 -389h-230z" />
    <glyph glyph-name="florin" unicode="&#x192;" horiz-adv-x="1319" 
d="M227 612v146h224q0 8 -1 24.5t-1 24.5q0 278 143.5 436t394.5 158q99 0 159 -49t60 -129q0 -62 -41 -107t-129 -80l-215 244q-17 -38 -25 -113t-8 -202q0 -56 4 -188q0 -13 1 -19h321v-146h-317q0 -31 1 -89.5t1 -84.5q0 -186 -18.5 -288.5t-61.5 -172.5
q-75 -122 -197 -195t-252 -73q-108 0 -177.5 51t-69.5 127q0 63 43.5 113t121.5 76l215 -232q31 50 44.5 133.5t13.5 245.5v389h-234z" />
    <glyph glyph-name="circumflex" unicode="&#x2c6;" 
d="M397 1532h230l225 -389h-207l-133 223l-133 -223h-207z" />
    <glyph glyph-name="caron" unicode="&#x2c7;" 
d="M172 1530h207l133 -223l133 223h207l-225 -389h-230z" />
    <glyph glyph-name="breve" unicode="&#x2d8;" 
d="M180 1495l127 -4v-6q0 -91 45 -126.5t162 -35.5q115 0 161 35t46 121v12l125 4v-29q0 -163 -76.5 -234t-255.5 -71q-180 0 -257 70.5t-77 234.5v29z" />
    <glyph glyph-name="dotaccent" unicode="&#x2d9;" 
d="M512 1493q64 0 110 -49t46 -117q0 -67 -46 -115.5t-110 -48.5q-66 0 -111 47.5t-45 116.5t45.5 117.5t110.5 48.5z" />
    <glyph glyph-name="ring" unicode="&#x2da;" 
d="M510 1485q-50 0 -85.5 -35.5t-35.5 -85.5t36 -86.5t85 -36.5q52 0 87.5 36t35.5 87t-35.5 86t-87.5 35zM512 1608q103 0 173.5 -70.5t70.5 -173.5t-71 -174.5t-173 -71.5q-103 0 -174.5 71.5t-71.5 174.5q0 102 71.5 173t174.5 71z" />
    <glyph glyph-name="ogonek" unicode="&#x2db;" 
d="M489 0h134q-47 -47 -72 -95t-25 -93q0 -49 29 -76t82 -27q10 0 25.5 1.5t35.5 4.5v-174q-35 -8 -64.5 -12t-55.5 -4q-113 0 -171.5 49t-58.5 143q0 66 37 140t104 143z" />
    <glyph glyph-name="tilde" unicode="&#x2dc;" 
d="M723 1509h135v-28q0 -145 -46.5 -215t-143.5 -70q-75 0 -175 46t-124 46q-38 0 -57 -27.5t-19 -80.5v-17h-137q0 8 -1 21.5t-1 19.5q0 135 48.5 203t145.5 68q70 0 170.5 -44.5t130.5 -44.5q38 0 56 25.5t18 79.5v18z" />
    <glyph glyph-name="hungarumlaut" unicode="&#x2dd;" 
d="M731 1532h305l-368 -389h-174zM362 1532h269l-312 -389h-151z" />
    <glyph glyph-name="Omega" unicode="&#x3a9;" horiz-adv-x="1569" 
d="M1122 221h301l54 168h67l-117 -389h-516q111 218 167.5 434.5t56.5 423.5q0 278 -87.5 417.5t-261.5 139.5t-262 -139t-88 -416q0 -205 57 -421.5t169 -438.5h-519l-116 389h67l53 -168h302v23q-158 127 -240 283.5t-82 330.5q0 277 188 458t471 181q284 0 471 -180.5
t187 -458.5q0 -176 -82 -332t-240 -282v-23z" />
    <glyph glyph-name="pi" unicode="&#x3c0;" horiz-adv-x="1427" 
d="M1352 653h-342q-12 -73 -17.5 -147t-5.5 -152v-147q0 -129 -33 -189.5t-102 -60.5q-49 0 -74.5 30t-25.5 87q0 64 74.5 253.5t107.5 325.5h-381q-12 -68 -18.5 -141t-6.5 -152q0 -4 1 -21q1 -67 1 -130q0 -129 -33.5 -190.5t-103.5 -61.5q-48 0 -73 29t-25 86
q0 65 75 254.5t107 326.5h-139q-5 0 -15.5 -1t-15.5 -1q-106 0 -153 -36.5t-68 -135.5h-59q41 227 128.5 316.5t266.5 89.5h981z" />
    <glyph glyph-name="endash" unicode="&#x2013;" 
d="M0 616h1024v-245h-1024v245z" />
    <glyph glyph-name="emdash" unicode="&#x2014;" horiz-adv-x="2048" 
d="M0 371v245h2048v-245h-2048z" />
    <glyph glyph-name="quoteleft" unicode="&#x2018;" horiz-adv-x="678" 
d="M567 1399v-121q-109 -18 -169 -84t-60 -168v-14h123q26 -25 38.5 -57.5t12.5 -73.5q0 -77 -45 -121.5t-123 -44.5q-96 0 -152.5 64t-56.5 173q0 176 120.5 301t311.5 146z" />
    <glyph glyph-name="quoteright" unicode="&#x2019;" horiz-adv-x="678" 
d="M137 715v121q110 18 170 83.5t60 167.5v15h-123q-26 24 -38.5 56.5t-12.5 74.5q0 76 44 121t119 45q99 0 156 -64.5t57 -175.5q0 -175 -120 -299t-312 -145z" />
    <glyph glyph-name="quotesinglbase" unicode="&#x201a;" horiz-adv-x="678" 
d="M74 -373v121q109 18 169 84t60 168v14h-123q-26 25 -38.5 57.5t-12.5 73.5q0 76 44.5 121t119.5 45q98 0 155.5 -64.5t57.5 -174.5q0 -175 -120 -299.5t-312 -145.5z" />
    <glyph glyph-name="quotedblleft" unicode="&#x201c;" horiz-adv-x="1186" 
d="M1081 1399v-121q-109 -17 -169 -82t-60 -166v-18h123q26 -25 38.5 -57.5t12.5 -73.5q0 -77 -45 -121.5t-123 -44.5q-96 0 -152.5 64t-56.5 173q0 176 120.5 301t311.5 146zM567 1399v-121q-109 -18 -168 -83.5t-59 -168.5v-14h121q26 -25 38.5 -57.5t12.5 -73.5
q0 -77 -45 -121.5t-123 -44.5q-96 0 -152.5 64t-56.5 173q0 176 120.5 301t311.5 146z" />
    <glyph glyph-name="quotedblright" unicode="&#x201d;" horiz-adv-x="1186" 
d="M649 715v121q110 18 170 83.5t60 167.5v15h-123q-26 24 -38.5 56.5t-12.5 74.5q0 76 44 121t119 45q99 0 156 -64.5t57 -175.5q0 -175 -120 -299t-312 -145zM137 715v121q109 18 168.5 83.5t59.5 167.5v15h-121q-26 24 -38.5 56.5t-12.5 74.5q0 76 44 121t119 45
q98 0 154.5 -64.5t56.5 -175.5q0 -175 -119 -299t-311 -145z" />
    <glyph glyph-name="quotedblbase" unicode="&#x201e;" horiz-adv-x="1186" 
d="M598 -373v121q110 18 169.5 84t59.5 168v14h-122q-26 25 -39 57.5t-13 73.5q0 76 44.5 121t119.5 45q98 0 155.5 -64.5t57.5 -174.5q0 -175 -120 -299.5t-312 -145.5zM86 -373v121q109 18 168 83.5t59 168.5v14h-120q-26 25 -39 57.5t-13 73.5q0 76 44.5 121t119.5 45
q98 0 154.5 -64t56.5 -175q0 -176 -119.5 -300t-310.5 -145z" />
    <glyph glyph-name="dagger" unicode="&#x2020;" 
d="M494 942h38l119 -340l-119 -866h-38l-119 866zM840 1106l149 -115l-149 -121l-289 93v43zM180 1106l295 -100v-43l-295 -93l-145 121zM512 1470l127 -155l-107 -287h-38l-111 287z" />
    <glyph glyph-name="daggerdbl" unicode="&#x2021;" 
d="M498 172h37l100 -287l-121 -155l-119 155zM840 336l149 -121l-149 -119l-289 92v43zM180 336l295 -105v-43l-295 -92l-145 119zM496 942h32l119 -340l-119 -342h-32l-119 342zM840 1106l149 -115l-149 -121l-289 93v43zM180 1106l295 -100v-43l-295 -93l-145 121z
M514 1470l121 -155l-100 -287h-37l-103 287z" />
    <glyph glyph-name="bullet" unicode="&#x2022;" horiz-adv-x="1208" 
d="M307 762q0 123 87 209t210 86q122 0 208.5 -86.5t86.5 -208.5t-87.5 -209.5t-209.5 -87.5q-123 0 -209 87t-86 210z" />
    <glyph glyph-name="ellipsis" unicode="&#x2026;" horiz-adv-x="2048" 
d="M340 377q81 0 138.5 -57.5t57.5 -139.5q0 -79 -58 -135.5t-138 -56.5t-136.5 56t-56.5 136q0 83 56 140t137 57zM1022 377q81 0 138.5 -57.5t57.5 -139.5q0 -79 -58 -135.5t-138 -56.5t-136.5 56t-56.5 136q0 83 56 140t137 57zM1706 377q81 0 138.5 -57.5t57.5 -139.5
q0 -79 -58 -135.5t-138 -56.5t-136.5 56t-56.5 136q0 83 56 140t137 57z" />
    <glyph glyph-name="perthousand" unicode="&#x2030;" horiz-adv-x="2896" 
d="M2437 725q-64 0 -97.5 -82t-33.5 -237q0 -157 33.5 -238.5t97.5 -81.5q66 0 99.5 80t33.5 240q0 156 -34 237.5t-99 81.5zM1530 725q-64 0 -96.5 -81t-32.5 -238q0 -158 32.5 -239t96.5 -81q66 0 99.5 80t33.5 240q0 156 -34 237.5t-99 81.5zM2443 834q179 0 283 -115.5
t104 -312.5q0 -199 -104 -315t-283 -116t-283 115.5t-104 315.5q0 197 104.5 312.5t282.5 115.5zM1538 834q178 0 282.5 -115.5t104.5 -312.5q0 -199 -104 -315t-283 -116q-180 0 -283.5 115.5t-103.5 315.5q0 197 104.5 312.5t282.5 115.5zM467 1290q-64 0 -96.5 -81
t-32.5 -238q0 -158 32.5 -239t96.5 -81q67 0 101 81t34 239q0 155 -34.5 237t-100.5 82zM1352 1374h166l-877 -1374h-164zM475 1399q179 0 284 -115.5t105 -312.5q0 -200 -104.5 -315t-284.5 -115q-179 0 -283 115t-104 315q0 198 104.5 313t282.5 115z" />
    <glyph glyph-name="guilsinglleft" unicode="&#x2039;" horiz-adv-x="588" 
d="M449 897v-207l-211 -198l211 -197v-207l-383 311v185z" />
    <glyph glyph-name="guilsinglright" unicode="&#x203a;" horiz-adv-x="588" 
d="M66 897l383 -313v-185l-383 -311v207l210 197l-210 198v207z" />
    <glyph glyph-name="franc" unicode="&#x20a3;" horiz-adv-x="2232" 
d="M57 0v119l131 8l33 39v1051l-33 30l-131 8v119h1119v-368h-177l-32 202l-29 25h-352v-483h233l29 26l20 148h146v-502h-146l-20 147l-29 29h-233v-432l39 -39l147 -8v-119h-715zM1292 0v109l113 10l23 26v674h-154v101l377 118h119l-19 -233q65 71 134 127.5t141 97.5
q10 0 30 2t29 2q42 0 74.5 -9.5t58.5 -29.5l-57 -395h-146q-27 71 -75 104t-123 33q-19 0 -29 -0.5t-18 -1.5v-590l26 -26l154 -10v-109h-658z" />
    <glyph glyph-name="trademark" unicode="&#x2122;" horiz-adv-x="1688" 
d="M762 817v53l57 4l8 15v395l-8 10l-57 4v58h258v-29l110 -330l109 330v29h260v-58l-59 -4l-10 -12v-393l10 -15l59 -4v-53h-260v53l49 4l8 15v395l-157 -467h-80l-158 467v-395l8 -15l54 -4v-53h-201zM223 1356h490v-162h-66l-16 96l-17 8h-75v-409l16 -12l53 -5v-55h-278
v55l51 5l16 12v409h-78l-14 -8l-14 -96h-68v162z" />
    <glyph glyph-name="partialdiff" unicode="&#x2202;" horiz-adv-x="1075" 
d="M758 639q17 103 26 186.5t9 147.5q0 120 -29 174.5t-92 54.5q-62 0 -147 -58.5t-122 -58.5t-64.5 26t-27.5 60q0 66 79 115t200 49q176 0 287.5 -159t111.5 -422q0 -338 -150 -558.5t-376 -220.5q-161 0 -266 112t-105 286q0 193 113 322.5t278 129.5q101 0 167.5 -45
t107.5 -141zM705 504q0 116 -41 178.5t-117 62.5q-105 0 -174.5 -131.5t-69.5 -337.5q0 -116 40.5 -177.5t117.5 -61.5q105 0 174.5 132.5t69.5 334.5z" />
    <glyph glyph-name="Delta" unicode="&#x2206;" horiz-adv-x="1350" 
d="M958 250l-380 899l-385 -899h765zM705 1497l641 -1497h-1340l651 1497h48z" />
    <glyph glyph-name="product" unicode="&#x220f;" horiz-adv-x="1673" 
d="M51 1473h1569v-78h-190v-1710h190v-78h-643v78h184v1710h-653v-1710h186v-78h-643v78h189v1710h-189v78z" />
    <glyph glyph-name="summation" unicode="&#x2211;" horiz-adv-x="1499" 
d="M18 1473h1199l120 -394h-82l-81 238q-15 43 -50.5 60.5t-130.5 17.5h-628l745 -809v-41l-784 -709h893q47 0 64.5 13.5t29.5 50.5l69 229h84l-159 -522h-1289v55l875 787l-875 964v60z" />
    <glyph glyph-name="minus" unicode="&#x2212;" horiz-adv-x="1706" 
d="M1452 696v-170h-1198v170h1198z" />
    <glyph glyph-name="fraction" unicode="&#x2215;" horiz-adv-x="342" 
d="M526 1374h164l-876 -1374h-164z" />
    <glyph glyph-name="middot.001" unicode="&#x2219;" horiz-adv-x="659" 
d="M328 883q81 0 138.5 -58t57.5 -139q0 -79 -58 -135.5t-138 -56.5t-136.5 56t-56.5 136q0 83 56 140t137 57z" />
    <glyph glyph-name="radical" unicode="&#x221a;" horiz-adv-x="1323" 
d="M1325 1675v-110h-108l-594 -1606h-82l-316 872l-131 -49l-28 95l305 108l247 -688l510 1378h197z" />
    <glyph glyph-name="infinity" unicode="&#x221e;" horiz-adv-x="1706" 
d="M928 559q45 -81 109.5 -122.5t146.5 -41.5q97 0 159 61.5t62 157.5q0 95 -57 158.5t-142 63.5q-78 0 -142 -63.5t-136 -213.5zM780 662q-46 81 -111 123t-145 42q-98 0 -159.5 -62t-61.5 -159q0 -94 56.5 -156.5t140.5 -62.5q80 0 144.5 62.5t135.5 212.5zM844 750
q71 139 149.5 200.5t184.5 61.5q127 0 222 -116t95 -284q0 -178 -84.5 -288.5t-220.5 -110.5q-92 0 -166.5 57.5t-161.5 200.5q-71 -135 -148.5 -197.5t-172.5 -62.5q-137 0 -232.5 114.5t-95.5 284.5q0 179 85 289.5t220 110.5q93 0 168.5 -60t157.5 -200z" />
    <glyph glyph-name="integral" unicode="&#x222b;" horiz-adv-x="1120" 
d="M324 -258q106 0 122 692q2 81 3 123q13 538 113 766.5t312 228.5q87 0 143 -45.5t56 -111.5q0 -61 -34 -95t-95 -34q-45 0 -74.5 22.5t-40.5 65.5q-4 17 -6 45q-3 40 -26 41q-101 0 -119 -615q-5 -161 -8 -249q-10 -280 -30.5 -427t-59.5 -245q-55 -136 -139.5 -205.5
t-194.5 -69.5q-87 0 -142 44t-55 112q0 63 35.5 97t99.5 34q39 0 66 -18t41 -54q6 -16 9 -59t24 -43z" />
    <glyph glyph-name="approxequal" unicode="&#x2248;" horiz-adv-x="1706" 
d="M1530 406q-107 -73 -200 -106.5t-189 -33.5q-89 0 -279.5 66.5t-298.5 66.5q-84 0 -173.5 -36t-211.5 -121v184q112 75 206.5 110t180.5 35q118 0 309 -67.5t277 -67.5q83 0 172 36.5t207 119.5v-186zM1530 795q-109 -75 -201.5 -108.5t-187.5 -33.5q-88 0 -278.5 67.5
t-299.5 67.5q-82 0 -170 -35t-215 -122v184q109 73 205 109.5t182 36.5q120 0 310 -68t268 -68q92 0 181 35t206 119v-184z" />
    <glyph glyph-name="notequal" unicode="&#x2260;" horiz-adv-x="1706" 
d="M1327 1112l-170 -215h295v-162h-403l-197 -250h600v-161h-707l-249 -314l-123 99l170 215h-289v161h393l199 250h-592v162h700l250 315z" />
    <glyph glyph-name="lessequal" unicode="&#x2264;" horiz-adv-x="1706" 
d="M1446 178v-166h-1186v166h1186zM1446 1047l-889 -287l889 -287v-176l-1186 389v145l1186 392v-176z" />
    <glyph glyph-name="greaterequal" unicode="&#x2265;" horiz-adv-x="1706" 
d="M1448 178v-166h-1188v166h1188zM1446 831v-145l-1186 -389v176l891 287l-891 287v176z" />
    <glyph glyph-name="lozenge" unicode="&#x25ca;" horiz-adv-x="1012" 
d="M506 1409l-385 -817l385 -825l385 825zM506 1653l500 -1061l-500 -1069l-500 1069z" />
    <glyph glyph-name="apple" unicode="&#xf000;" horiz-adv-x="1618" 
d="M836 1216q-1 6 -1.5 14t-0.5 23q0 124 95 229.5t236 131.5q1 -10 1.5 -23t0.5 -39q0 -131 -103.5 -234.5t-203.5 -103.5h-8q-3 0 -7.5 1t-8.5 1zM1505 403q-114 -247 -205 -342.5t-204 -95.5q-50 0 -131.5 33t-122.5 33q-45 0 -131 -33t-127 -33q-64 0 -128.5 44
t-129.5 132q-102 140 -157.5 295.5t-55.5 300.5q0 219 125 356.5t323 137.5q68 0 155 -34t124 -34q34 0 121.5 35t152.5 35q110 0 198 -40t161 -124q-102 -65 -151.5 -145.5t-49.5 -182.5q0 -113 60 -200t173 -138z" />
    <glyph glyph-name="fi" unicode="&#xf001;" horiz-adv-x="1450" 
d="M932 1337q0 77 48 128t120 51q79 0 130.5 -49.5t51.5 -123.5q0 -80 -50.5 -132t-127.5 -52q-73 0 -122.5 50.5t-49.5 127.5zM813 1202l-248 217q-19 -34 -27 -104.5t-8 -233.5v-96h498l113 53h121v-893l24 -26l125 -10v-109h-618v109l102 10l29 26v689h-394v-687l35 -28
l113 -10v-109h-606v109l96 10l27 28v687h-144v94l144 90q0 221 153.5 367.5t378.5 146.5q88 0 138 -39t50 -107q0 -51 -25.5 -97t-76.5 -87z" />
    <glyph glyph-name="fi" unicode="&#xfb01;" horiz-adv-x="1450" 
d="M932 1337q0 77 48 128t120 51q79 0 130.5 -49.5t51.5 -123.5q0 -80 -50.5 -132t-127.5 -52q-73 0 -122.5 50.5t-49.5 127.5zM813 1202l-248 217q-19 -34 -27 -104.5t-8 -233.5v-96h498l113 53h121v-893l24 -26l125 -10v-109h-618v109l102 10l29 26v689h-394v-687l35 -28
l113 -10v-109h-606v109l96 10l27 28v687h-144v94l144 90q0 221 153.5 367.5t378.5 146.5q88 0 138 -39t50 -107q0 -51 -25.5 -97t-76.5 -87z" />
    <glyph glyph-name="fl" unicode="&#xf002;" horiz-adv-x="1460" 
d="M1165 1526h105v-1374l28 -33l127 -15v-104h-643v104l121 17l31 24v1151l-123 -96l-246 219q-18 -30 -26.5 -107.5t-8.5 -238.5v-88h279v-151h-279v-687l35 -28l113 -10v-109h-606v109l96 10l27 28v687h-144v94l144 90q3 110 35 193.5t98 152.5q73 75 179.5 121.5
t205.5 46.5q87 0 139.5 -25t85.5 -82z" />
    <glyph glyph-name="fl" unicode="&#xfb02;" horiz-adv-x="1460" 
d="M1165 1526h105v-1374l28 -33l127 -15v-104h-643v104l121 17l31 24v1151l-123 -96l-246 219q-18 -30 -26.5 -107.5t-8.5 -238.5v-88h279v-151h-279v-687l35 -28l113 -10v-109h-606v109l96 10l27 28v687h-144v94l144 90q3 110 35 193.5t98 152.5q73 75 179.5 121.5
t205.5 46.5q87 0 139.5 -25t85.5 -82z" />
    </font>
</defs>
</svg>
